<svg width="248" height="136" viewBox="0 0 248 136" fill="none" xmlns="http://www.w3.org/2000/svg">

<rect width="248" height="136" fill="#1E1E1E"/>
<g id="Logo">
<rect width="2000" height="2000" transform="translate(-546 -1243)" fill="white"/>
<g id="stammbrueder-logo" clip-path="url(#clip0_0_1)">
<g id="Icon">
<mask id="mask0_0_1" style="mask-type:alpha" maskUnits="userSpaceOnUse" x="0" y="-2" width="56" height="118">
<path id="Rectangle 5" d="M56 -2H0V116H56V-2Z" fill="white"/>
</mask>
<g mask="url(#mask0_0_1)">
<path id="Saegeblatt" fill-rule="evenodd" clip-rule="evenodd" d="M50.9893 2.69531C50.9803 2.73015 50.9655 2.76353 50.9463 2.79395C50.853 2.94175 50.5621 3.40213 50.4404 3.59473C50.4151 3.63488 50.3784 3.66717 50.3359 3.68652L50.3291 3.70703C50.2231 5.70917 52.3085 6.40495 53.7119 5.36133L56.9551 1.5498L61.2305 0.803711L61.4014 0.494141L62.7236 0.240234C62.7236 0.240234 61.6608 2.38662 61.4854 2.74121C61.4689 2.77405 61.4482 2.80493 61.4229 2.83105C61.3026 2.95725 60.928 3.35089 60.7705 3.5166C60.7377 3.55164 60.6959 3.5755 60.6504 3.58594L60.6396 3.60547C60.1455 5.54864 62.0552 6.63817 63.6348 5.88867L67.5596 2.78223L71.8975 2.88379L72.125 2.61426L73.4727 2.62305C73.4727 2.62305 72.0107 4.52143 71.7695 4.83496C71.7472 4.86326 71.7212 4.88855 71.6914 4.91016C71.5488 5.01019 71.1046 5.32392 70.918 5.45605C70.8792 5.48358 70.834 5.49869 70.7871 5.50098L70.7715 5.51758C69.9081 7.327 71.5694 8.7678 73.2646 8.34082L77.7197 6.06055L81.9541 7.00586L82.2305 6.78613L83.5498 7.05762C83.5356 7.07006 81.7449 8.63503 81.4482 8.89453C81.4214 8.9184 81.3903 8.9382 81.3574 8.95312C81.1977 9.02405 80.7013 9.24456 80.4922 9.33789C80.4489 9.3573 80.4008 9.36391 80.3545 9.35645L80.3369 9.36914C79.1366 10.9748 80.4838 12.7119 82.2305 12.624L87.0449 11.2568L91.0146 13.0107L91.3281 12.8486L92.5693 13.3721C92.5693 13.3721 90.4921 14.5676 90.1494 14.7646C90.1174 14.7825 90.0836 14.7955 90.0479 14.8037C89.8774 14.8426 89.3482 14.9627 89.125 15.0127C89.0787 15.0231 89.0296 15.0194 88.9863 15.0029L88.9668 15.0137C87.4761 16.3544 88.4589 18.3206 90.1885 18.5752L95.1777 18.1729L98.7275 20.668L99.0674 20.5703L100.182 21.3252C100.155 21.3342 97.9114 22.0923 97.5381 22.2188C97.5039 22.2306 97.4673 22.2375 97.4316 22.2383C97.257 22.2428 96.7128 22.2567 96.4844 22.2627C96.4368 22.2641 96.3908 22.2511 96.3506 22.2266L96.3281 22.2324C94.6056 23.2566 95.1855 25.3772 96.832 25.9648L101.804 26.543L104.8 29.6826L105.151 29.6533L106.098 30.6113C106.061 30.6161 103.72 30.9206 103.33 30.9717C103.294 30.9762 103.257 30.9757 103.221 30.9697C103.049 30.9398 102.514 30.8484 102.289 30.8096C102.242 30.8014 102.198 30.7792 102.164 30.7471L102.142 30.749C100.252 31.4179 100.407 33.6105 101.908 34.5078L106.671 36.0449L108.997 39.708L109.347 39.748L110.088 40.873C110.057 40.871 107.695 40.7125 107.304 40.6865C107.267 40.6843 107.232 40.6757 107.197 40.6631C107.035 40.6004 106.526 40.4054 106.313 40.3232C106.269 40.306 106.231 40.2765 106.203 40.2393L106.181 40.2363C104.198 40.5232 103.922 42.7037 105.219 43.876L109.59 46.3135L111.156 50.3604L111.492 50.4678L112 51.7158C111.992 51.7137 109.686 51.092 109.305 50.9893C109.27 50.9797 109.236 50.9647 109.205 50.9453C109.058 50.852 108.599 50.5625 108.405 50.4404C108.365 50.415 108.333 50.3784 108.313 50.3359L108.292 50.3291C106.291 50.2235 105.595 52.3089 106.639 53.7119L110.45 56.9551L111.196 61.2295L111.506 61.4004L111.76 62.7236C111.76 62.7236 109.612 61.6609 109.258 61.4854C109.226 61.4692 109.195 61.448 109.169 61.4229C109.042 61.3026 108.648 60.9279 108.482 60.7705C108.448 60.7377 108.424 60.6957 108.414 60.6504L108.394 60.6396C106.451 60.1454 105.362 62.0552 106.111 63.6348L109.218 67.5596L109.116 71.8975L109.386 72.125L109.377 73.4727C109.377 73.4727 107.479 72.0109 107.165 71.7695C107.136 71.7474 107.111 71.7211 107.09 71.6914C106.989 71.5488 106.675 71.1047 106.544 70.918C106.516 70.8791 106.501 70.8337 106.499 70.7871L106.481 70.7715C104.673 69.9082 103.232 71.5693 103.659 73.2646L105.939 77.7197L104.994 81.9541L105.214 82.2305L104.942 83.5498C104.928 83.5333 103.365 81.7447 103.105 81.4482C103.082 81.4208 103.062 81.3897 103.047 81.3564C102.976 81.1968 102.755 80.701 102.662 80.4922C102.643 80.4486 102.636 80.4006 102.644 80.3545L102.63 80.3369C101.024 79.1368 99.2879 80.4842 99.376 82.2305L100.743 87.0449L98.9893 91.0137L99.1514 91.3271L98.627 92.5684C98.6099 92.5388 97.431 90.4899 97.2354 90.1494C97.2167 90.1178 97.2045 90.0833 97.1963 90.0479C97.1575 89.8774 97.0381 89.348 96.9873 89.125C96.9769 89.0784 96.9806 89.0302 96.9971 88.9863L96.9863 88.9658C95.6456 87.4757 93.6794 88.4587 93.4248 90.1885L93.8271 95.1777L91.332 98.7275L91.4297 99.0674L90.6738 100.183C90.6738 100.183 89.9085 97.9139 89.7812 97.5381C89.7693 97.5035 89.7632 97.4672 89.7617 97.4307C89.7572 97.2561 89.7425 96.7129 89.7373 96.4844C89.7358 96.4367 89.7488 96.3903 89.7734 96.3506L89.7676 96.3291C88.7434 94.6059 86.6229 95.1861 86.0361 96.833L85.4561 101.804L82.3174 104.8L82.3477 105.151L81.3877 106.098C81.3848 106.075 81.0789 103.721 81.0283 103.33C81.0238 103.294 81.0243 103.257 81.0303 103.221C81.0602 103.048 81.1516 102.513 81.1904 102.288C81.1987 102.241 81.2207 102.198 81.252 102.164L81.251 102.142C80.5829 100.252 78.3905 100.407 77.4932 101.908L75.9551 106.671L72.291 108.996L72.252 109.347L71.127 110.088C71.1291 110.056 71.2867 107.697 71.3135 107.304C71.3157 107.267 71.3243 107.231 71.3369 107.197C71.3996 107.034 71.5946 106.527 71.6768 106.313C71.6939 106.269 71.7227 106.231 71.7607 106.203L71.7637 106.182C71.477 104.198 69.2958 103.922 68.123 105.219L65.6855 109.59L61.6387 111.156L61.5312 111.492L60.2842 112C60.2842 112 60.9077 109.687 61.0107 109.305C61.0205 109.27 61.0354 109.236 61.0547 109.205C61.1481 109.057 61.4371 108.599 61.5596 108.405C61.585 108.365 61.6215 108.333 61.6641 108.313L61.6709 108.292C61.7767 106.291 59.6917 105.595 58.2891 106.638L55.0449 110.45L50.7705 111.197L50.5996 111.506L49.2773 111.76C49.2854 111.744 50.3394 109.613 50.5146 109.259C50.5311 109.226 50.5518 109.195 50.5771 109.169C50.6973 109.042 51.072 108.648 51.2295 108.482C51.2623 108.448 51.3042 108.424 51.3496 108.413L51.3604 108.394C51.8543 106.451 49.9448 105.362 48.3652 106.111L44.4414 109.218L40.1025 109.116L39.875 109.386L38.5283 109.377C38.5283 109.377 39.9893 107.479 40.2305 107.165C40.2528 107.136 40.2795 107.111 40.3086 107.09C40.4519 106.989 40.8954 106.676 41.082 106.544C41.1208 106.516 41.1667 106.501 41.2129 106.499L41.2285 106.482C42.0922 104.674 40.4316 103.232 38.7363 103.659L34.2803 105.939L30.0459 104.994L29.7695 105.214L28.4502 104.942C28.4559 104.937 30.2544 103.366 30.5518 103.105C30.5794 103.081 30.61 103.062 30.6436 103.047C30.8034 102.976 31.2995 102.755 31.5078 102.662C31.5517 102.643 31.5994 102.636 31.6455 102.644L31.6631 102.63C32.8633 101.024 31.5156 99.287 29.7695 99.375L24.9551 100.743L20.9854 98.9893L20.6719 99.1504L19.4316 98.627C19.4509 98.6159 21.5078 97.4324 21.8506 97.2354C21.8819 97.2173 21.9164 97.2034 21.9521 97.1953C22.1223 97.1569 22.6524 97.0377 22.875 96.9873C22.9219 96.9768 22.9697 96.98 23.0137 96.9961L23.0342 96.9863C24.5242 95.6455 23.5419 93.6792 21.8115 93.4248L16.8223 93.8262L13.2725 91.332L12.9336 91.4297L11.8184 90.6738C11.8509 90.6628 14.0898 89.9061 14.4619 89.7803C14.4969 89.7687 14.5328 89.7627 14.5693 89.7617C14.744 89.7572 15.2872 89.7432 15.5156 89.7373C15.5632 89.7361 15.61 89.7491 15.6494 89.7734L15.6719 89.7676C17.3944 88.7434 16.8143 86.6233 15.168 86.0361L10.1963 85.457L7.2002 82.3174L6.84863 82.3467L5.90234 81.3877C5.90234 81.3877 8.27781 81.0793 8.66992 81.0283C8.7065 81.0236 8.74346 81.0241 8.7793 81.0303C8.95206 81.06 9.48649 81.1517 9.71191 81.1904C9.75886 81.1985 9.80163 81.2203 9.83594 81.252L9.8584 81.251C11.7486 80.5826 11.5933 78.3891 10.0928 77.4922L5.3291 75.9551L3.00391 72.291L2.65332 72.252L1.91211 71.127C1.9444 71.1291 4.30507 71.2872 4.69727 71.3135C4.73367 71.3159 4.76929 71.3239 4.80273 71.3369C4.96617 71.3995 5.47291 71.5947 5.68652 71.6768C5.73131 71.6939 5.76925 71.723 5.79688 71.7607L5.81934 71.7637C7.80329 71.4767 8.07862 69.2955 6.78125 68.123L2.41016 65.6855L0.84375 61.6387L0.507812 61.5322L0 60.2842C0.0157657 60.2884 2.31516 60.9081 2.69531 61.0107C2.7309 61.0202 2.76449 61.0344 2.79492 61.0537C2.94265 61.1469 3.40121 61.4374 3.59473 61.5596C3.63504 61.585 3.66711 61.6217 3.68652 61.6641L3.70801 61.6709C5.71006 61.7766 6.4059 59.6911 5.3623 58.2881L1.55078 55.0449L0.803711 50.7705L0.495117 50.5996L0.240234 49.2764C0.240234 49.2764 2.3876 50.3391 2.74219 50.5146C2.77497 50.5308 2.80497 50.552 2.83105 50.5771C2.9581 50.6975 3.35182 51.0711 3.51758 51.2285C3.55182 51.2613 3.57568 51.3034 3.58691 51.3486L3.60645 51.3604C5.54951 51.8545 6.63806 49.9448 5.88867 48.3652L2.7832 44.4404L2.88477 40.1025L2.61523 39.875L2.62305 38.5273C2.62305 38.5273 4.52143 39.9886 4.83496 40.2305C4.86401 40.2521 4.88928 40.2788 4.91016 40.3086C5.01093 40.4512 5.3249 40.8954 5.45703 41.082C5.48453 41.1207 5.4994 41.1661 5.50098 41.2129L5.51855 41.2275C7.3272 42.0917 8.7678 40.4306 8.34082 38.7354L6.06055 34.2803L7.00586 30.0459L6.78613 29.7695L7.05859 28.4492C7.06516 28.4567 8.63543 30.2534 8.89551 30.5508C8.91931 30.5783 8.93822 30.6099 8.95312 30.6426C9.02402 30.8023 9.24528 31.2987 9.33789 31.5078C9.3573 31.5511 9.36391 31.5992 9.35645 31.6455L9.37012 31.6631C10.9758 32.8627 12.713 31.5155 12.625 29.7695L11.2568 24.9551L13.0107 20.9863L12.8496 20.6729L13.373 19.4307C13.373 19.4307 14.5678 21.5079 14.7656 21.8506C14.7834 21.8818 14.7965 21.9165 14.8047 21.9521C14.8428 22.1225 14.9627 22.6517 15.0127 22.875C15.0231 22.9213 15.0203 22.9696 15.0039 23.0137L15.0137 23.0332C16.3544 24.5232 18.3214 23.5412 18.5752 21.8115L18.1738 16.8223L20.668 13.2715L20.5703 12.9326L21.3262 11.8174C21.3317 11.8338 22.0927 14.0869 22.2188 14.4619C22.2307 14.4963 22.2375 14.5328 22.2383 14.5693C22.2428 14.7445 22.2567 15.2874 22.2627 15.5156C22.2634 15.5633 22.2514 15.6099 22.2275 15.6494L22.2334 15.6709C23.2576 17.3943 25.377 16.8143 25.9639 15.167L26.5439 10.1963L29.6826 7.2002L29.6533 6.84863L30.6123 5.90234C30.6172 5.94003 30.9213 8.28019 30.9717 8.66992C30.9769 8.70575 30.9764 8.74249 30.9697 8.77832C30.9406 8.95072 30.8484 9.48524 30.8096 9.71094C30.8014 9.75791 30.7801 9.80162 30.748 9.83594L30.749 9.8584C31.4171 11.7478 33.6105 11.5923 34.5078 10.0918L36.0449 5.3291L39.709 3.00293L39.748 2.65332L40.873 1.91211C40.8709 1.94375 40.7125 4.30403 40.6865 4.69629C40.6835 4.73275 40.6764 4.76849 40.6631 4.80273C40.6004 4.96547 40.4056 5.47302 40.3242 5.68652C40.3071 5.73112 40.2772 5.76908 40.2393 5.7959L40.2363 5.81836C40.523 7.80258 42.7042 8.07794 43.877 6.78125L46.3145 2.41016L50.3613 0.84375L50.4688 0.506836L51.7168 0C51.7168 0 51.0923 2.3131 50.9893 2.69531ZM56.5 44C49.5964 44 44 49.5964 44 56.5C44 63.4036 49.5964 69 56.5 69C63.4036 69 69 63.4036 69 56.5C69 49.5964 63.4036 44 56.5 44Z" fill="black"/>
</g>
</g>
<path id="brueder" fill-rule="evenodd" clip-rule="evenodd" d="M132.945 47.3989C133.822 47.0695 133.639 46.1918 132.434 44.8036C131.592 43.8529 131.337 43.2317 131.337 42.027V40.4552L136.893 37.4575C139.926 35.8151 142.484 34.535 142.592 34.608C142.665 34.7186 143.178 36.728 143.761 39.1022C144.858 43.6341 144.858 43.707 143.324 45.8647C142.994 46.3401 142.994 46.5942 143.361 47.0342C143.761 47.5095 144.785 47.6177 149.427 47.6177C152.533 47.6177 155.275 47.5095 155.604 47.3989C156.479 47.0695 156.334 46.2294 155.129 44.7306C154.581 44.0011 153.776 42.7564 153.338 41.954C152.35 39.9446 144.129 6.68727 144.129 4.56721C144.129 4.16485 144.456 3.43541 144.858 2.92246C145.736 1.82596 145.809 0.621193 145.004 0.32942C144.677 0.218829 141.35 0.108275 137.549 0.108275C129.474 0.108275 129.253 0.183571 130.789 2.81423L131.74 4.45894L129.876 12.4262C128.888 16.8099 126.733 25.436 125.161 31.6102C122.784 40.9658 122.128 43.0858 121.25 44.1824C119.57 46.3024 119.497 46.3753 119.751 47.0342C119.972 47.5448 120.775 47.6177 126.184 47.6177C129.582 47.6177 132.615 47.5095 132.945 47.3989ZM171.28 46.813C171.609 46.34 171.391 45.8648 170.332 44.4741L168.979 42.7564V33.4009L169.016 24.0453L170.221 27.3349C170.88 29.1631 172.376 33.4762 173.546 36.9845L175.666 43.3047L174.826 44.8765C173.473 47.3989 173.875 47.6177 179.76 47.6177C185.643 47.6177 186.045 47.3989 184.692 44.8765L183.852 43.3047L187.252 33.3279C189.116 27.8101 190.723 23.243 190.796 23.1324C190.869 23.0595 190.906 27.3348 190.833 32.7067L190.723 42.4294L189.297 44.4741C187.215 47.5095 187.398 47.6177 194.998 47.6177C202.528 47.6177 202.674 47.5095 199.86 43.6341L198.947 42.3917V5.29899L200.262 3.39774C202.307 0.402372 202.199 0.291791 196.095 0.183553C191.052 0.108256 190.869 0.108247 190.029 0.950622C189.443 1.57181 187.836 5.84724 184.473 15.9346L179.76 30.0761L175.009 15.8239C172.414 8.00256 169.965 1.24241 169.6 0.840049C169.016 0.145914 168.649 0.108256 163.569 0.183553C157.322 0.291791 157.138 0.437686 159.258 3.25188L160.574 4.96957V42.5752L159.294 44.3282C156.992 47.4718 157.357 47.6554 164.922 47.5448C170.038 47.4342 170.953 47.3612 171.28 46.813ZM216.999 47.3989C217.877 47.0695 217.693 46.2294 216.305 44.3282L215.025 42.5752V33.3279C215.025 28.2125 215.171 24.3018 215.354 24.5936C215.5 24.8877 217.037 29.1984 218.717 34.1703L221.75 43.1588L220.91 44.8765C219.63 47.4342 219.959 47.6177 225.806 47.6177C231.691 47.6177 232.056 47.3989 230.776 44.8765L229.974 43.2317L233.298 33.4762C235.127 28.1019 236.696 23.6453 236.769 23.5348C236.88 23.4618 236.953 27.5913 236.953 32.7067V42.0623L235.454 44.2929C233.261 47.5448 233.371 47.6177 241.047 47.6177C248.574 47.6177 248.72 47.5095 245.906 43.6341L244.993 42.3917V5.33428L245.906 4.09188C248.647 0.32943 248.428 0.108275 242.068 0.108275C237.098 0.108275 236.88 0.145895 236.113 0.985917C235.673 1.49887 233.444 7.45434 230.668 15.6404C228.11 23.243 225.952 29.4925 225.917 29.5655C225.844 29.6008 223.613 23.2053 220.945 15.3487C218.169 7.16256 215.83 0.84004 215.5 0.583563C214.844 0.0729614 205.78 -0.110591 204.646 0.32942C203.77 0.656488 203.952 1.46123 205.342 3.28952L206.62 4.96957V42.7564L205.342 44.4388C203.076 47.3989 203.441 47.6177 210.676 47.6177C213.855 47.6177 216.67 47.5095 216.999 47.3989ZM115.257 47.0695C115.622 46.6318 115.441 46.1189 114.198 44.2929L112.699 42.0623V6.94375L114.598 7.16255C116.208 7.38138 116.756 7.63787 118.182 9.06379C121.25 12.0968 121.909 11.365 121.763 4.82365L121.652 0H108.497L95.3387 0.035295V5.08014C95.3387 9.3179 95.4493 10.1226 95.9246 10.4521C96.5458 10.8544 96.5834 10.8168 99.6165 8.44259C100.384 7.8214 101.553 7.34607 102.577 7.20019L104.294 6.94375V24.5583C104.294 43.0506 104.33 42.7211 102.612 44.8036C101.661 45.9377 101.48 47.0695 102.21 47.3612C102.431 47.4718 105.391 47.5824 108.716 47.5824C113.65 47.6177 114.892 47.5095 115.257 47.0695ZM90.6609 46.4483C93.1104 44.8412 93.3292 43.9635 93.3292 35.7774C93.3292 27.956 93.148 27.0078 91.2844 25.2901C90.6985 24.7418 87.6655 22.5489 84.5595 20.3912C81.4535 18.2358 78.7852 16.2993 78.6393 16.0428C78.4934 15.824 78.3452 13.7039 78.3452 11.365V7.05198H84.1924V9.9038C84.1924 12.4262 84.303 12.8639 85.0348 13.5204C86.3125 14.7275 90.1503 16.9205 90.9903 16.9205C92.4539 16.9205 92.5998 16.3346 92.5998 10.1226C92.5998 4.60485 92.5621 4.16482 91.7574 3.03303C90.1503 0.583554 89.1644 0.291791 81.9641 0.183553C74.8016 0.0353134 73.0839 0.329439 71.2932 1.93654L70.1237 2.9601V19.8076L71.3662 21.0853C72.0603 21.7818 75.2769 24.1936 78.5664 26.4595C82.2206 28.9796 84.5595 30.8432 84.7054 31.3185C84.8136 31.7208 84.9242 34.0244 84.9242 36.3986V40.674H78.3452V36.9845C78.3452 33.3279 78.3452 33.2926 77.251 32.2691C76.6275 31.6855 75.0933 30.6973 73.8886 30.0761C71.8767 29.0902 71.5497 29.0172 70.8909 29.4925C70.1591 29.9678 70.1238 30.3679 70.0132 36.3257C69.9779 39.834 70.0131 43.0506 70.1237 43.4882C70.4155 44.7682 72.4627 46.8507 73.7427 47.2154C74.3639 47.4342 78.0911 47.5448 82.0371 47.5095C89.1267 47.4342 89.1997 47.4342 90.6609 46.4483ZM134.114 28.6502C134.37 27.5184 135.248 23.7183 136.088 20.2099C136.893 16.7016 137.622 13.6686 137.66 13.4851C137.733 13.2286 140.401 24.923 140.582 26.3842C140.62 26.7137 139.232 27.6643 137.147 28.7984L133.639 30.6973L134.114 28.6502Z" fill="black"/>
<path id="stamm" fill-rule="evenodd" clip-rule="evenodd" d="M231.606 109.443C231.955 109.023 231.782 108.534 230.592 106.784L229.157 104.651V96.6751L230.312 95.9746C230.908 95.5898 231.502 95.2761 231.606 95.2761C231.886 95.2761 235.805 105.874 235.805 106.645C235.805 106.995 235.454 107.66 235.069 108.113C234.44 108.743 234.371 108.988 234.755 109.443C235.105 109.862 236.223 109.968 241.052 109.968C248.467 109.968 248.676 109.862 246.089 106.645C245.493 105.874 244.759 104.791 244.443 104.195C243.85 102.971 239.301 90.8682 239.301 90.4834C239.301 90.3098 240.002 89.7493 240.876 89.2245C241.717 88.6641 242.904 87.6855 243.465 87.0205L244.55 85.7972V76.9812C244.55 64.0394 245.319 64.7043 230.556 64.5642C224.89 64.4932 219.923 64.5287 219.469 64.6688C218.42 64.9135 218.42 65.8921 219.503 67.1865C221.148 69.1814 221.113 68.8321 221.113 87.2297C221.113 105.629 221.148 105.28 219.503 107.275C218.593 108.358 218.42 109.443 219.118 109.722C219.329 109.828 222.163 109.933 225.345 109.933C230.067 109.968 231.257 109.862 231.606 109.443ZM153.602 109.199C154.44 108.743 155.455 107.938 155.839 107.415C156.54 106.434 156.575 105.909 156.749 87.79L156.925 69.1813L158.079 67.6423C159.302 65.9632 159.478 65.018 158.639 64.7043C158.324 64.5977 155.595 64.4932 152.552 64.4932C147.971 64.4932 146.921 64.5977 146.465 65.0535C145.836 65.6474 145.836 65.6119 147.55 68.1316L148.705 69.8108V103.321H141.358V69.4951L142.233 68.3073C143.736 66.2434 143.983 65.612 143.458 65.0181C143.073 64.5643 142.093 64.4932 137.055 64.5642C131.913 64.6688 131.074 64.7378 130.725 65.2627C130.445 65.7185 130.585 66.1368 131.495 67.2575C132.124 68.027 132.789 69.0768 132.963 69.5661C133.174 70.1245 133.312 77.506 133.312 88.8042V107.135L134.117 108.044C135.516 109.652 137.022 109.933 144.857 109.968C151.643 109.968 152.132 109.933 153.602 109.199ZM184.383 109.199C187.287 107.729 187.183 108.463 187.183 87.721C187.183 69.1104 187.112 67.9561 185.817 66.4526C184.349 64.7734 183.789 64.6688 172.911 64.5642C160.597 64.4241 160.352 64.4932 162.872 67.6758L164.095 69.2149V105.316L162.872 106.855C160.423 109.933 160.563 109.968 172.666 109.968C182.53 109.968 182.879 109.933 184.383 109.199ZM95.5697 109.023C96.2346 108.603 97.0041 107.833 97.2133 107.344C97.4935 106.714 97.6336 103.565 97.6336 97.3755V88.3149L96.5483 87.0915C95.9544 86.4266 94.9402 85.517 94.2753 85.0967L93.0519 84.3627L94.3108 82.9637C95.0093 82.2277 95.7098 81.2135 95.8854 80.7242C96.0945 80.2349 96.2346 77.437 96.2346 74.497C96.2346 69.6707 96.1636 69.0413 95.4651 67.6423C93.9615 64.7043 93.7859 64.6688 81.4025 64.6688C68.8099 64.6688 68.9144 64.6333 71.154 67.5022C71.8525 68.4118 72.5174 69.6352 72.622 70.2311C72.7285 70.825 72.7976 78.8695 72.7285 88.1393L72.622 104.931L71.2585 106.924C69.0545 110.108 68.7053 110.037 82.5568 109.897C93.9951 109.793 94.3443 109.757 95.5697 109.023ZM214.467 109.268C215.13 108.603 215.166 108.113 215.166 101.957C215.166 98.3187 215.061 95.1005 214.957 94.7868C214.572 93.8061 213.311 94.191 210.269 96.2549L207.295 98.2497L207.086 103.356L201.35 103.147L201.243 99.5776L201.139 95.9746L204.393 93.9107C209.779 90.4834 209.254 91.2885 209.15 86.7759C209.01 81.9141 208.905 81.8785 204.566 84.6074C202.854 85.6571 201.419 86.5312 201.314 86.5312C201.103 86.5312 201.139 72.3285 201.384 71.6991C201.559 71.2453 202.153 71.1388 204.357 71.1388H207.086L207.19 74.8818C207.295 78.0309 207.4 78.6603 207.855 78.7649C208.625 78.905 213.556 75.8979 214.501 74.7081C215.166 73.8676 215.201 73.4138 215.097 69.6352C214.99 65.9987 214.921 65.4383 214.327 64.9825C213.767 64.5978 211.563 64.4932 202.538 64.4932C189.176 64.4932 189.42 64.3886 192.254 68.3073L193.128 69.4951V105L191.905 106.784C190.61 108.638 190.401 109.443 191.135 109.722C191.344 109.828 196.557 109.933 202.678 109.933C213.311 109.968 213.802 109.933 214.467 109.268ZM114.354 109.163C114.423 108.814 113.934 107.693 113.235 106.714L111.974 104.895V96.7106L113.06 95.9411C113.654 95.5208 114.249 95.3116 114.423 95.4853C114.808 95.9055 118.622 106.049 118.622 106.679C118.622 106.959 118.271 107.52 117.852 107.938C117.292 108.498 117.223 108.814 117.468 109.232C117.748 109.688 118.726 109.793 123.204 109.897C126.177 109.933 128.939 109.897 129.395 109.793C130.55 109.512 130.374 108.358 128.906 106.75C128.241 105.98 127.367 104.65 126.982 103.776C125.477 100.209 122.085 90.9036 122.189 90.5189C122.258 90.2742 123.099 89.5382 124.044 88.8752C127.367 86.6002 127.367 86.6357 127.367 76.9456C127.367 67.3621 127.227 66.6972 124.707 65.4028C123.448 64.7043 122.643 64.6688 113.2 64.5642C107.637 64.4932 102.74 64.5287 102.286 64.6688C101.167 64.949 101.272 65.8586 102.707 67.9916L103.93 69.8108V105L102.707 106.61C101.55 108.149 101.201 109.232 101.726 109.757C101.866 109.862 104.735 109.933 108.093 109.897C113.689 109.793 114.249 109.722 114.354 109.163ZM80.8441 103.356V92.1625L83.3973 90.4143L85.9842 88.6642L87.8034 90.2743L89.589 91.8468L89.518 97.4802L89.4135 103.147L85.1456 103.252L80.8441 103.356ZM172.142 103.321V71.1051L175.393 71.2098L178.611 71.3143L178.716 87.3362L178.787 103.321H172.142ZM229.157 79.5344V71.1051L232.76 71.2098L236.328 71.3143V83.1729L232.901 85.5506C231.012 86.8805 229.402 87.9301 229.298 87.9301C229.229 87.9301 229.157 84.1516 229.157 79.5344ZM111.974 79.5344V71.1051L115.577 71.2098L119.147 71.3143L119.251 77.1568L119.32 82.9637L116.102 85.2013C114.318 86.4602 112.639 87.5809 112.43 87.721C112.081 87.9302 111.974 86.1819 111.974 79.5344ZM80.8441 77.437V71.1051L84.4471 71.2098L88.0145 71.3143L88.1191 74.9173C88.1546 76.8766 88.048 78.7649 87.8744 79.1161C87.5942 79.639 82.3831 83.1374 81.1223 83.6622C80.9822 83.7333 80.8441 80.9334 80.8441 77.437ZM139.965 54C143.705 54.0039 143.807 54.1638 143.807 57.8476C143.807 58.558 143.76 59.2861 143.689 59.8761C143.626 60.4207 143.541 60.8469 143.458 61.0304C143.142 61.6243 142.688 61.6952 139.784 61.6952C135.867 61.6952 135.763 61.5907 135.763 57.8476C135.763 56.7802 135.771 56.0087 135.873 55.4503C135.928 55.1523 136.009 54.9155 136.132 54.7281L136.141 54.7143C136.193 54.6354 136.252 54.5663 136.319 54.5051C136.335 54.4913 136.351 54.4775 136.366 54.4637C136.414 54.4262 136.463 54.3907 136.518 54.3571L136.576 54.3256C136.66 54.2803 136.755 54.2407 136.86 54.2052C137.456 54.0138 138.373 54 139.784 54H139.965ZM150.167 54C146.425 54.0039 146.325 54.1638 146.325 57.8476C146.325 58.558 146.37 59.2861 146.441 59.8761C146.506 60.4207 146.589 60.8469 146.674 61.0304C146.988 61.6243 147.444 61.6952 150.346 61.6952C154.265 61.6952 154.369 61.5907 154.369 57.8476C154.369 56.7802 154.361 56.0087 154.257 55.4503C154.204 55.1523 154.121 54.9155 153.998 54.7281L153.989 54.7143C153.937 54.6354 153.878 54.5663 153.811 54.5051C153.797 54.4913 153.781 54.4775 153.764 54.4637C153.718 54.4262 153.667 54.3907 153.612 54.3571L153.554 54.3256C153.47 54.2803 153.375 54.2407 153.27 54.2052C152.674 54.0138 151.759 54 150.346 54H150.167Z" fill="black"/>
<g id="est">
<path d="M195.726 135.737C195.905 135.576 195.914 135.477 195.914 134.144C195.914 132.264 196.03 132.371 194.097 132.371C192.199 132.371 192.297 132.282 192.262 134.018C192.226 135.379 192.297 135.728 192.62 135.862C192.736 135.907 193.434 135.934 194.177 135.925C195.377 135.907 195.565 135.889 195.726 135.737ZM170.751 135.862L171.253 135.433L171.279 132.756C171.306 129.901 171.271 129.596 170.921 129.596C170.626 129.596 168.854 130.679 168.728 130.948C168.657 131.082 168.612 131.574 168.612 132.3C168.612 133.213 168.585 133.463 168.469 133.571C168.343 133.696 168.075 133.714 166.571 133.696L164.808 133.669V129.399L166.625 128.307C167.627 127.707 168.531 127.126 168.639 127.018C168.818 126.839 168.836 126.705 168.863 125.828C168.898 124.709 168.845 124.261 168.666 124.199C168.594 124.172 167.708 124.646 166.687 125.264C165.676 125.872 164.826 126.374 164.799 126.374C164.781 126.374 164.772 124.53 164.781 122.283L164.808 118.183L166.598 118.156C168.2 118.138 168.397 118.147 168.496 118.291C168.576 118.398 168.612 118.872 168.612 119.884C168.612 121.629 168.657 121.755 169.203 121.504C169.4 121.424 169.91 121.101 170.357 120.797C171.118 120.269 171.163 120.224 171.235 119.839C171.271 119.615 171.288 118.738 171.279 117.888C171.253 116.375 171.244 116.33 171.038 116.16C170.832 115.999 170.644 115.99 165.935 116.008L161.048 116.035L161.021 116.25C160.994 116.393 161.084 116.563 161.299 116.787C161.469 116.966 161.719 117.27 161.845 117.458L162.077 117.807V134.045L161.818 134.439C161.675 134.654 161.433 134.949 161.281 135.092C161.021 135.343 160.923 135.665 161.066 135.8C161.093 135.835 163.286 135.862 165.935 135.862H170.751ZM190.436 135.638C190.453 135.522 190.283 135.245 189.961 134.878C189.693 134.564 189.424 134.161 189.379 133.973C189.317 133.759 189.299 130.948 189.308 126.105C189.335 117.36 189.209 118.264 190.391 118.353C191.322 118.416 191.751 118.622 192.244 119.248C192.664 119.768 193.005 119.956 193.148 119.741C193.193 119.669 193.228 118.846 193.228 117.906C193.228 115.856 193.246 115.901 192.396 116.08C192.011 116.16 190.803 116.214 188.404 116.232C185.476 116.268 184.832 116.25 184.044 116.124C183.534 116.035 183.06 115.99 182.979 116.026C182.863 116.071 182.845 116.321 182.863 117.933C182.889 119.75 182.889 119.794 183.077 119.821C183.221 119.839 183.409 119.696 183.776 119.266C184.402 118.559 184.671 118.425 185.638 118.353C186.273 118.3 186.407 118.317 186.542 118.443C186.685 118.586 186.694 119.168 186.694 126.32V134.045L186.461 134.394C186.327 134.582 186.085 134.895 185.924 135.083C185.638 135.397 185.548 135.665 185.682 135.8C185.718 135.835 186.792 135.853 188.072 135.844C190.346 135.817 190.409 135.808 190.436 135.638ZM180.804 135.612C181.045 135.495 181.323 135.271 181.43 135.119C181.636 134.833 181.636 134.824 181.636 131.19V127.555L181.368 127.161C181.18 126.902 180.517 126.365 179.264 125.452C176.248 123.285 175.925 123.035 175.71 122.713C175.514 122.417 175.505 122.337 175.505 120.448C175.505 119.266 175.54 118.416 175.594 118.308C175.684 118.147 175.8 118.138 177.295 118.138C178.79 118.138 178.906 118.147 178.996 118.308C179.04 118.407 179.085 118.998 179.085 119.615C179.085 120.233 179.13 120.824 179.175 120.913C179.282 121.11 180.168 121.755 180.902 122.167C181.699 122.614 181.681 122.677 181.681 119.794V117.351L181.395 116.921C181.216 116.661 180.938 116.393 180.696 116.259L180.294 116.035L177.402 116.008C174.296 115.981 173.956 116.017 173.401 116.447C172.873 116.867 172.864 116.939 172.837 120.135C172.801 123.509 172.846 123.876 173.329 124.413C173.661 124.78 173.723 124.825 176.785 127.036C178.324 128.155 178.763 128.522 178.906 128.791C179.067 129.113 179.085 129.328 179.085 131.261C179.085 133.114 179.067 133.41 178.933 133.553C178.808 133.696 178.629 133.714 177.286 133.714C176.042 133.714 175.764 133.687 175.648 133.571C175.531 133.454 175.505 133.177 175.505 131.924C175.505 131.091 175.469 130.312 175.415 130.187C175.37 130.053 175.012 129.748 174.547 129.435C173.24 128.558 172.971 128.477 172.855 128.916C172.828 129.023 172.819 130.294 172.837 131.745C172.864 134.117 172.882 134.421 173.034 134.699C173.347 135.289 173.768 135.621 174.386 135.782C174.538 135.817 175.943 135.844 177.519 135.835C180.32 135.817 180.392 135.817 180.804 135.612Z" fill="black"/>
<path d="M235.295 135.883C235.376 135.802 235.403 135.262 235.403 134.002C235.403 131.715 235.385 131.688 234.467 132.679C234.116 133.057 233.738 133.408 233.63 133.462C233.504 133.525 232.703 133.561 231.407 133.561C229.003 133.561 229.102 133.597 229.102 132.616C229.102 131.977 229.111 131.95 229.525 131.391C230.353 130.248 233.072 127.026 234.431 125.559C234.863 125.1 235.169 124.686 235.232 124.479C235.286 124.272 235.313 122.931 235.295 120.599C235.268 117.071 235.268 117.044 235.061 116.756C234.953 116.603 234.674 116.378 234.431 116.261C234.017 116.063 233.936 116.054 231.145 116.027C227.779 115.991 227.554 116.027 226.96 116.675C226.762 116.891 226.555 117.224 226.501 117.413C226.438 117.629 226.402 118.853 226.402 120.554C226.402 123.435 226.42 123.57 226.762 123.57C226.924 123.57 228.733 122.4 228.922 122.175C229.021 122.049 229.066 121.608 229.102 120.293L229.147 118.583L229.372 118.466C229.534 118.376 229.975 118.349 230.974 118.367C232.847 118.403 232.703 118.169 232.703 121.094V123.372L232.082 124.173C231.352 125.118 229.102 127.746 227.635 129.375C226.951 130.131 226.546 130.653 226.492 130.86C226.366 131.319 226.384 135.064 226.519 135.451C226.582 135.622 226.726 135.811 226.852 135.874C227.167 136.036 235.133 136.045 235.295 135.883ZM222.946 135.856C223.45 135.712 223.9 135.316 224.161 134.803C224.332 134.47 224.332 134.218 224.314 125.874L224.287 117.287L224.008 116.891C223.837 116.666 223.54 116.414 223.288 116.279L222.856 116.054H216.276L215.826 116.279C215.241 116.567 214.998 116.945 214.926 117.656C214.899 117.962 214.881 121.941 214.899 126.495C214.926 133.984 214.944 134.803 215.07 135.046C215.295 135.442 215.547 135.64 216.069 135.82C216.492 135.964 216.888 135.982 219.525 135.991C221.893 135.991 222.595 135.964 222.946 135.856ZM245.637 135.748C246.087 135.505 246.537 134.974 246.654 134.551C246.708 134.353 246.744 131.04 246.744 125.91C246.744 118.016 246.735 117.566 246.573 117.215C246.357 116.738 245.754 116.234 245.259 116.108C244.62 115.946 239.057 115.973 238.499 116.144C238.013 116.288 237.545 116.702 237.392 117.116C237.266 117.449 237.257 134.371 237.383 134.812C237.527 135.325 238.022 135.739 238.688 135.91C238.841 135.946 240.38 135.973 242.109 135.964C245.178 135.946 245.268 135.937 245.637 135.748ZM212.973 134.029C212.991 132.355 212.973 132.112 212.856 132.058C212.748 132.022 212.487 132.238 211.974 132.787L211.236 133.561H209.102C206.6 133.561 206.69 133.597 206.69 132.571V131.986L207.32 131.148C208.013 130.23 210.362 127.431 211.605 126.063C212.046 125.577 212.532 124.992 212.676 124.767L212.946 124.353L212.973 120.995C213 117.296 212.973 117.053 212.505 116.585C211.965 116.045 211.578 116 208.337 116.027C205.61 116.054 205.457 116.063 205.115 116.252C204.701 116.468 204.44 116.738 204.206 117.179C204.053 117.467 204.035 117.764 204.008 120.347C203.981 123.309 204.008 123.57 204.341 123.57C204.566 123.57 206.357 122.391 206.546 122.121C206.663 121.941 206.69 121.644 206.69 120.329C206.69 119.105 206.717 118.7 206.816 118.565C206.933 118.412 207.068 118.394 208.49 118.394C209.912 118.394 210.047 118.412 210.164 118.565C210.263 118.709 210.29 119.204 210.29 121.085V123.435L209.453 124.479C208.436 125.739 206.285 128.241 205.16 129.465C204.71 129.96 204.269 130.491 204.188 130.635C204.053 130.869 204.035 131.211 204.035 133.066C204.035 135.433 204.089 135.73 204.521 135.892C204.665 135.946 206.366 135.973 208.85 135.964L212.946 135.946L212.973 134.029ZM217.689 133.453C217.608 133.372 217.581 131.589 217.581 125.991C217.581 119.267 217.59 118.628 217.734 118.52C217.842 118.421 218.274 118.394 219.624 118.394C221.362 118.394 221.38 118.394 221.551 118.61C221.713 118.808 221.722 119.06 221.722 125.991C221.722 132.337 221.704 133.183 221.578 133.363C221.443 133.552 221.398 133.561 219.615 133.561C218.319 133.561 217.77 133.534 217.689 133.453ZM240.074 133.408C239.966 133.291 239.948 132.022 239.948 125.991C239.948 119.123 239.957 118.709 240.11 118.556C240.254 118.412 240.461 118.394 242.019 118.394C243.576 118.394 243.783 118.412 243.927 118.556C244.08 118.709 244.089 119.123 244.089 125.991C244.089 132.022 244.071 133.291 243.963 133.408C243.855 133.543 243.603 133.561 242.019 133.561C240.434 133.561 240.182 133.543 240.074 133.408Z" fill="black"/>
</g>
</g>
</g>
<defs>
<clipPath id="clip0_0_1">
<rect width="248" height="136" fill="white"/>
</clipPath>
</defs>
</svg>
