<svg id="logo" style="fill-rule:evenodd;clip-rule:evenodd;stroke-linejoin:round;stroke-miterlimit:2;" viewBox="0 0 568 505" xml:space="preserve"
		 xmlns="http://www.w3.org/2000/svg">
	<title>Stammbrüder Logo</title>
	<rect height="504.567" id="Logo-animation" style="fill:none;" width="566.929" x="0.213" y="0.015" />
	<clipPath id="clip">
		<path fill="black" d="M567.142,306.054L567.142,504.582L0.213,504.582L0.213,306.054L567.142,306.054ZM567.142,211.431L0.213,211.431L0.213,0.015L567.142,0.015L567.142,211.431Z" />
	</clipPath>
	<g clip-path="url(#clip)">
		<path fill="black" d="M251.713,7.48L252.144,5.969L257.629,3.533C257.629,3.533 255.179,13.92 254.774,15.636C254.736,15.794 254.676,15.946 254.593,16.086C254.199,16.757 252.972,18.844 252.456,19.721C252.348,19.905 252.19,20.05 252.004,20.143L251.975,20.239C251.786,29.169 261.171,31.972 267.272,27.128L281.177,9.697L300.107,5.768L300.824,4.37L306.679,3.051C306.679,3.051 302.249,12.761 301.518,14.364C301.45,14.512 301.361,14.649 301.253,14.771C300.735,15.351 299.124,17.159 298.447,17.919C298.306,18.078 298.122,18.19 297.922,18.244L297.875,18.333C295.948,27.054 304.605,31.635 311.533,28.074L328.572,13.69L347.905,13.53L348.881,12.298L354.881,12.148C354.881,12.148 348.642,20.806 347.611,22.236C347.516,22.368 347.402,22.485 347.272,22.583C346.651,23.052 344.719,24.51 343.906,25.124C343.737,25.252 343.535,25.326 343.327,25.34L343.264,25.418C339.673,33.596 347.27,39.777 354.76,37.637L374.278,26.853L393.27,30.468L394.467,29.45L400.381,30.473C400.381,30.473 392.573,37.748 391.283,38.95C391.164,39.06 391.03,39.153 390.883,39.223C390.183,39.562 388.003,40.615 387.086,41.059C386.895,41.151 386.683,41.184 386.477,41.158L386.399,41.222C381.281,48.542 387.527,56.087 395.29,55.448L416.537,48.68L434.459,55.93L435.832,55.166L441.433,57.323C441.433,57.323 432.355,62.935 430.856,63.862C430.718,63.947 430.567,64.011 430.41,64.052C429.657,64.248 427.314,64.856 426.328,65.111C426.122,65.165 425.908,65.156 425.711,65.09L425.622,65.138C419.175,71.318 423.828,79.936 431.567,80.825L453.726,78.332L469.889,88.939L471.385,88.457L476.457,91.665C476.457,91.665 466.46,95.399 464.808,96.015C464.656,96.072 464.496,96.106 464.333,96.115C463.557,96.16 461.14,96.299 460.123,96.357C459.911,96.37 459.703,96.319 459.522,96.216L459.426,96.246C451.897,101.05 454.779,110.41 462.196,112.791L484.416,114.669L498.199,128.226L499.76,128.045L504.109,132.181C504.109,132.181 493.575,133.892 491.835,134.175C491.674,134.201 491.511,134.203 491.35,134.18C490.579,134.072 488.182,133.737 487.173,133.596C486.963,133.567 486.768,133.477 486.611,133.34L486.511,133.351C478.189,136.593 479.19,146.336 486,150.119L507.426,156.295L518.3,172.281L519.866,172.408L523.325,177.313C523.325,177.313 512.66,176.936 510.898,176.874C510.735,176.868 510.575,176.838 510.421,176.784C509.687,176.528 507.4,175.732 506.439,175.397C506.238,175.327 506.065,175.201 505.937,175.036L505.837,175.027C497.043,176.584 496.124,186.335 502.065,191.373L521.874,201.611L529.42,219.411L530.932,219.841L533.367,225.326C533.367,225.326 522.98,222.876 521.264,222.471C521.106,222.434 520.954,222.373 520.814,222.29C520.144,221.896 518.057,220.669 517.179,220.153C516.996,220.045 516.85,219.888 516.757,219.701L516.661,219.673C507.732,219.484 504.928,228.868 509.772,234.969L527.204,248.875L531.132,267.804L532.531,268.521L533.849,274.376C533.849,274.376 524.14,269.947 522.536,269.215C522.388,269.147 522.251,269.058 522.13,268.95C521.549,268.432 519.742,266.822 518.982,266.144C518.823,266.003 518.711,265.82 518.656,265.619L518.567,265.572C509.846,263.645 505.266,272.302 508.827,279.23L523.21,296.27L523.37,315.602L524.602,316.578L524.753,322.578C524.753,322.578 516.094,316.339 514.664,315.309C514.532,315.213 514.415,315.099 514.317,314.969C513.849,314.349 512.39,312.416 511.777,311.604C511.649,311.434 511.575,311.232 511.56,311.025L511.482,310.961C503.305,307.37 497.123,314.967 499.264,322.457L510.047,341.975L506.433,360.967L507.45,362.165L506.428,368.079C506.428,368.079 499.153,360.271 497.951,358.981C497.84,358.862 497.748,358.727 497.677,358.581C497.339,357.88 496.285,355.701 495.842,354.784C495.75,354.592 495.716,354.38 495.742,354.174L495.678,354.096C488.359,348.979 480.814,355.224 481.452,362.988L488.22,384.234L480.97,402.156L481.735,403.529L479.578,409.13C479.578,409.13 473.966,400.053 473.039,398.553C472.953,398.415 472.889,398.265 472.848,398.107C472.653,397.354 472.045,395.011 471.789,394.025C471.736,393.82 471.745,393.605 471.811,393.408L471.763,393.319C465.582,386.872 456.964,391.525 456.075,399.264L458.569,421.423L447.961,437.586L448.443,439.082L445.235,444.155C445.235,444.155 441.502,434.157 440.885,432.505C440.828,432.353 440.795,432.193 440.785,432.031C440.741,431.254 440.602,428.837 440.543,427.821C440.531,427.609 440.581,427.4 440.684,427.219L440.655,427.123C435.851,419.594 426.49,422.477 424.109,429.893L422.231,452.113L408.675,465.896L408.855,467.457L404.719,471.806C404.719,471.806 403.008,461.272 402.726,459.532C402.7,459.372 402.698,459.208 402.72,459.047C402.828,458.277 403.163,455.879 403.304,454.871C403.333,454.66 403.424,454.465 403.56,454.308L403.55,454.208C400.307,445.887 390.564,446.888 386.782,453.698L380.605,475.124L364.62,485.997L364.493,487.564L359.588,491.022C359.588,491.022 359.965,480.357 360.027,478.595C360.033,478.433 360.063,478.272 360.116,478.118C360.372,477.384 361.168,475.098 361.503,474.136C361.573,473.935 361.7,473.762 361.864,473.635L361.874,473.534C360.317,464.74 350.566,463.821 345.527,469.762L335.289,489.572L317.49,497.118L317.06,498.629L311.574,501.065C311.574,501.065 314.025,490.678 314.429,488.962C314.467,488.803 314.528,488.652 314.61,488.512C315.004,487.841 316.231,485.754 316.748,484.876C316.855,484.693 317.013,484.548 317.199,484.455L317.228,484.358C317.417,475.429 308.032,472.626 301.932,477.47L288.026,494.901L269.096,498.83L268.379,500.228L262.524,501.547C262.524,501.547 266.954,491.837 267.686,490.233C267.753,490.085 267.842,489.949 267.951,489.827C268.468,489.246 270.079,487.439 270.756,486.679C270.898,486.52 271.081,486.408 271.282,486.353L271.329,486.265C273.256,477.544 264.598,472.963 257.67,476.524L240.631,490.908L221.298,491.068L220.322,492.3L214.323,492.45C214.323,492.45 220.561,483.792 221.592,482.361C221.687,482.23 221.801,482.113 221.931,482.015C222.552,481.546 224.484,480.088 225.297,479.474C225.467,479.346 225.668,479.272 225.876,479.258L225.939,479.18C229.531,471.002 221.933,464.821 214.443,466.961L194.925,477.745L175.933,474.13L174.736,475.148L168.822,474.125C168.822,474.125 176.63,466.85 177.92,465.648C178.039,465.537 178.174,465.445 178.32,465.374C179.02,465.036 181.2,463.982 182.117,463.539C182.308,463.447 182.52,463.413 182.727,463.44L182.804,463.376C187.922,456.056 181.677,448.511 173.913,449.15L152.666,455.918L134.744,448.667L133.371,449.432L127.77,447.275C127.77,447.275 136.848,441.663 138.347,440.736C138.486,440.651 138.636,440.587 138.793,440.546C139.546,440.35 141.889,439.742 142.875,439.487C143.081,439.433 143.295,439.442 143.493,439.508L143.581,439.46C150.028,433.28 145.375,424.661 137.636,423.773L115.477,426.266L99.314,415.659L97.818,416.141L92.746,412.933C92.746,412.933 102.744,409.199 104.395,408.583C104.547,408.526 104.707,408.492 104.87,408.483C105.646,408.438 108.063,408.299 109.08,408.24C109.292,408.228 109.501,408.278 109.681,408.382L109.777,408.352C117.307,403.548 114.424,394.188 107.007,391.806L84.788,389.929L71.005,376.372L69.443,376.553L65.094,372.417C65.094,372.417 75.628,370.706 77.368,370.423C77.529,370.397 77.692,370.395 77.853,370.418C78.624,370.525 81.021,370.861 82.03,371.001C82.24,371.031 82.435,371.121 82.592,371.257L82.692,371.247C91.014,368.004 90.013,358.261 83.203,354.479L61.777,348.302L50.903,332.317L49.337,332.19L45.878,327.285C45.878,327.285 56.544,327.662 58.305,327.724C58.468,327.73 58.629,327.76 58.782,327.814C59.517,328.069 61.803,328.866 62.764,329.201C62.965,329.271 63.139,329.397 63.266,329.562L63.366,329.571C72.161,328.014 73.08,318.263 67.139,313.225L47.329,302.987L39.783,285.187L38.271,284.757L35.836,279.272C35.836,279.272 46.223,281.722 47.939,282.127C48.097,282.164 48.249,282.225 48.389,282.307C49.06,282.702 51.146,283.929 52.024,284.445C52.207,284.553 52.353,284.71 52.446,284.897L52.542,284.925C61.471,285.114 64.275,275.73 59.431,269.629L41.999,255.723L38.071,236.794L36.672,236.077L35.354,230.221C35.354,230.221 45.063,234.651 46.667,235.383C46.815,235.451 46.952,235.54 47.073,235.648C47.654,236.166 49.461,237.776 50.222,238.454C50.38,238.595 50.492,238.778 50.547,238.979L50.636,239.026C59.357,240.953 63.937,232.296 60.377,225.367L45.993,208.328L45.833,188.996L44.601,188.02L44.45,182.02C44.45,182.02 53.109,188.259 54.539,189.289C54.671,189.384 54.788,189.499 54.886,189.628C55.354,190.249 56.813,192.182 57.426,192.994C57.554,193.164 57.628,193.365 57.643,193.573L57.721,193.636C65.898,197.228 72.08,189.631 69.939,182.141L59.156,162.623L62.771,143.631L61.753,142.433L62.775,136.519C62.775,136.519 70.05,144.327 71.252,145.617C71.363,145.736 71.455,145.871 71.526,146.017C71.865,146.718 72.918,148.897 73.361,149.814C73.454,150.006 73.487,150.218 73.461,150.424L73.525,150.501C80.844,155.619 88.389,149.374 87.751,141.61L80.983,120.364L88.233,102.442L87.469,101.069L89.625,95.468C89.625,95.468 95.237,104.545 96.164,106.045C96.25,106.183 96.314,106.333 96.355,106.491C96.55,107.244 97.158,109.587 97.414,110.572C97.467,110.778 97.459,110.993 97.393,111.19L97.44,111.278C103.621,117.726 112.239,113.072 113.128,105.333L110.635,83.175L121.242,67.011L120.76,65.516L123.968,60.443C123.968,60.443 127.701,70.441 128.318,72.093C128.375,72.245 128.408,72.405 128.418,72.567C128.462,73.344 128.602,75.761 128.66,76.777C128.672,76.989 128.622,77.198 128.519,77.379L128.548,77.475C133.352,85.004 142.713,82.121 145.094,74.704L146.972,52.485L160.529,38.702L160.348,37.141L164.484,32.791C164.484,32.791 166.195,43.326 166.477,45.066C166.503,45.226 166.505,45.39 166.483,45.551C166.375,46.321 166.04,48.719 165.899,49.727C165.87,49.938 165.78,50.132 165.643,50.289L165.653,50.389C168.896,58.711 178.639,57.71 182.422,50.9L188.598,29.474L204.583,18.601L204.711,17.034L209.616,13.575C209.616,13.575 209.239,24.241 209.176,26.003C209.171,26.165 209.14,26.326 209.087,26.479C208.831,27.214 208.035,29.5 207.7,30.462C207.63,30.662 207.504,30.836 207.339,30.963L207.33,31.063C208.886,39.858 218.638,40.777 223.676,34.836L233.914,15.026L251.713,7.48ZM278.014,44.265C392.88,40.628 489.089,130.931 492.726,245.797C496.363,360.662 406.06,456.871 291.194,460.508C176.329,464.145 80.12,373.842 76.483,258.976C72.845,144.111 163.149,47.902 278.014,44.265ZM278.148,48.482C390.686,44.919 484.945,133.392 488.508,245.93C492.072,358.468 403.598,452.727 291.061,456.29C178.523,459.854 84.264,371.38 80.7,258.843C77.137,146.305 165.61,52.046 278.148,48.482ZM278.424,57.183C386.159,53.772 476.396,138.47 479.808,246.206C483.219,353.941 398.521,444.178 290.785,447.59C183.05,451.001 92.812,366.303 89.401,258.567C85.99,150.832 170.688,60.594 278.424,57.183ZM278.983,74.838C376.974,71.736 459.05,148.773 462.152,246.765C465.255,344.756 388.218,426.832 290.226,429.935C192.235,433.037 110.159,356 107.056,258.008C103.954,160.017 180.991,77.941 278.983,74.838ZM279.125,79.339C374.633,76.315 454.628,151.4 457.652,246.907C460.676,342.415 385.591,422.41 290.084,425.434C194.576,428.458 114.581,353.373 111.557,257.866C108.533,162.358 183.617,82.363 279.125,79.339Z" id="Saw" />
	</g>
	<path fill="black" id="Baum" d="M287.83,195.997C286.983,197.568 286.137,199.148 285.242,200.69C284.743,201.543 284.499,202.341 285.05,203.212C285.65,204.162 286.51,204.19 287.34,203.72C289.29,202.617 291.302,202.433 293.443,202.775C294.219,202.9 295.067,202.439 295.883,202.242L295.885,202.239C295.714,202.179 295.433,202.168 295.395,202.05C294.599,199.674 295.612,196.547 297.551,195.314C298.49,197.905 297.964,200.095 295.885,202.239L295.888,202.24L295.845,202.28C296.372,202.006 296.952,201.816 297.418,201.443C299.332,199.916 301.223,198.352 303.094,196.758C303.765,196.19 304.358,195.507 305.081,194.779C303.287,193.197 301.456,191.748 302.254,188.798C304.175,189.616 305.236,191.419 305.444,194.478C307.409,192.128 309.801,191.345 312.534,191.423C311.779,188.901 310.838,186.577 313.076,184.376C313.842,186.611 314.394,188.69 313.013,190.824C313.095,190.916 313.177,191.007 313.257,191.099C313.778,190.525 314.36,190.005 314.811,189.368C316.255,187.324 317.793,185.46 320.314,185.348C321.159,185.309 322.009,185.42 322.918,185.464C322.815,185.618 322.782,185.726 322.736,185.731C320.124,186.05 318.108,187.216 316.414,189.729C315.303,191.378 313.274,192.271 311.599,193.391C310.58,194.072 309.559,194.704 309.319,196.121C309.257,196.489 309.541,197.257 309.769,197.315C311.872,197.851 313.999,198.273 316.079,198.719C317.524,193.637 318.275,192.608 320.781,192.085C320.925,194.88 319.534,197.22 317.063,198.341C318.849,198.876 320.157,198.3 321.22,196.498C322.89,193.671 325.041,191.793 328.227,192.16C328.957,192.243 329.794,192.494 330.346,192.998C332.658,195.126 335.126,195.022 337.704,193.899C340.489,192.684 343.43,193.45 345.88,196.342C342.84,194.941 340.064,194.916 337.252,195.798C336.433,196.054 335.573,196.132 334.734,196.305C332.998,196.665 331.432,196.245 330.027,195.03C329.725,194.768 329.393,194.533 329.05,194.344C327.319,193.396 325.959,194.194 325.623,196.053C326.713,196.85 327.697,197.605 328.712,198.298C329.906,199.113 331.131,199.875 332.342,200.662L332.302,200.613C332.317,200.615 332.331,200.617 332.345,200.618L332.345,200.621C333.319,200.739 334.304,201.013 335.265,200.931C338.483,200.658 340.126,201.427 341.942,204.252C340.23,203.665 338.468,203.058 336.708,202.452C336.633,202.581 336.559,202.711 336.486,202.842C338.454,204.677 340.294,206.581 339.576,209.864C336.99,208.753 335.868,206.666 335.779,202.725C334.662,202.596 333.53,202.476 332.399,202.335C330.578,202.104 328.91,201.51 327.568,199.97C326.511,198.755 325.207,198.413 323.802,199.107C322.258,199.869 320.75,200.726 318.975,201.675C323.02,204.798 326.651,207.76 325.66,214.054C321.664,211.219 317.884,208.485 319.108,202.037C316.291,203.18 313.665,203.048 311.071,202.323C309.933,202.005 308.81,201.455 307.789,200.794C306.707,200.092 305.667,199.861 304.494,200.306C302.182,201.182 300.157,202.456 298.635,204.74C298.007,205.683 297.009,206.432 296.042,206.935C293.952,208.022 291.755,208.841 289.641,209.876C288.672,210.351 287.744,210.993 286.897,211.711C285.555,212.85 284.79,214.351 285.073,216.353C285.148,216.876 285.194,217.423 285.136,217.943C285.018,219.007 282.072,226.574 285.132,234.594C287.517,240.848 285.228,240.261 285.299,243.195C285.614,256.236 286.24,269.647 287.286,270.798C288.705,272.358 288.339,274.695 287.817,276.732C287.21,279.095 287.099,281.232 288.356,283.508C288.952,284.589 288.946,286.351 288.725,287.702C288.337,290.063 288.867,295.049 290.641,296.345C291.494,296.967 292.239,297.793 292.982,298.589C294.415,300.127 303.331,299.021 305.681,299.73C307.502,300.277 309.538,300.875 310.903,302.207C314.31,305.536 318.073,307.305 322.833,307.052C320.767,308.216 316.326,308.039 314.075,307.072C312.556,306.421 310.932,306.078 309.366,305.56C308.393,305.237 307.36,305.008 306.493,304.455C304.239,303.015 301.828,303.409 299.467,303.188C299.379,303.367 299.288,303.544 299.2,303.723C300.15,304.621 302.252,305.399 303.547,306.624C300.739,306.161 296.973,306.469 294.95,304.54C292.993,302.677 290.669,302.251 288.336,301.775C286.624,301.426 285.255,302.103 284.335,303.931C283.493,305.602 282.476,307.127 280.403,307.612C280.334,307.628 280.261,307.599 280.223,307.538C280.185,307.477 280.19,307.399 280.235,307.343C280.849,306.579 281.347,306.004 281.775,305.368C282.557,304.208 282.24,303.123 280.967,303.053C279.893,302.992 278.687,303.17 277.737,303.697C275.887,304.724 274.137,305.58 271.956,305.599C270.343,305.612 268.731,306.306 266.97,306.87C266.892,306.894 266.808,306.86 266.77,306.788C266.731,306.716 266.749,306.627 266.811,306.576C268.046,305.554 269.215,304.587 270.568,303.466C269.981,303.313 269.686,303.138 269.418,303.181C266.331,303.682 263.018,303.018 260.303,305.527C259.827,305.968 258.95,305.825 258.359,306.115C255.971,307.288 243.881,307.689 234.347,306.534C232.47,306.306 230.571,306.443 228.672,306.361C228.546,306.353 228.445,306.255 228.433,306.13C228.421,306.004 228.503,305.889 228.625,305.858C232.479,304.894 236.19,304.531 240.482,305.112C244.067,305.596 247.452,304.561 250.156,303.479C251.344,303.004 252.377,302.234 253.451,301.537L262.449,297.506C262.574,297.269 262.838,296.73 263.133,296.213C263.458,295.645 263.767,295.056 264.156,294.549C265.94,292.222 266.167,286.165 265.712,283.309C265.401,281.338 265.577,279.565 266.321,277.694C266.989,276.011 267.445,274.102 267.526,272.267C267.626,270.006 267.452,261.122 266.983,250.82C266.935,249.767 266.059,249.991 266.005,248.915C265.979,248.384 266.236,246.862 265.943,246.414C264.244,243.817 266.555,242.516 266.447,240.759C265.605,227.107 264.27,213.836 262.398,211.835C260.528,209.839 259.209,207.725 258.828,204.89C258.657,203.636 258.172,203.156 256.994,203.194C255.211,203.251 254.647,202.731 253.768,200.548C255.367,200.976 256.706,201.335 258.017,201.686C257.707,200.083 256.893,198.386 255.369,197.44C252.955,195.939 250.983,193.981 249.486,191.384C249.371,191.184 249.206,191.02 249.057,190.848C247.47,189.007 246.482,189.084 245.124,191.166C244.414,192.253 243.735,193.367 243.021,194.451C242.197,195.701 241.108,195.986 239.835,195.476C238.992,195.138 238.13,194.837 237.318,194.416C236.303,193.891 235.517,194.023 234.91,195.142C234.711,195.511 234.403,195.805 234.204,196.172C232.981,198.428 231.259,199.459 228.874,199.44C228.051,199.431 227.131,200.151 226.413,200.773C225.335,201.707 224.396,202.846 223.358,203.939C224.965,207.962 226.774,212.041 223.178,215.987C220.913,213.063 220.788,208.099 222.994,204.226C222.582,204.395 222.293,204.502 222.01,204.631C219.327,205.857 217.095,205.241 215.247,202.76C213.802,200.817 213.23,200.655 211.165,201.698C210.428,202.073 209.715,202.517 209.01,202.968C208.324,203.404 207.663,203.891 206.82,204.086C208.23,202.724 209.606,201.312 211.062,200.017C211.915,199.259 212.928,199.373 213.849,199.943C214.71,200.475 215.548,201.06 216.353,201.689C218.393,203.284 220.494,203.37 222.624,202.016C223.795,201.272 224.899,200.394 226.349,199.348C224.625,198.931 223.314,198.618 222.005,198.292C220.21,197.843 219.894,197.458 219.633,195.455C219.609,195.264 219.578,195.073 219.546,194.885C219.137,192.526 218.638,192.077 216.583,192.545C214.405,193.041 212.631,191.948 210.988,191.175C213.285,191.01 215.732,190.881 218.171,190.636C219.295,190.522 220.13,190.906 220.613,192.017C221.065,193.051 221.441,194.138 221.763,195.232C222.11,196.408 222.782,197.253 223.83,197.33C225.904,197.487 227.995,197.551 230.067,197.401C230.7,197.354 231.427,196.6 231.866,195.957C232.7,194.743 233.36,193.375 234.087,192.067C235.2,190.07 236.307,189.807 238.023,191.136C240.703,193.209 241.149,193.173 243.523,190.615C244.202,189.88 244.883,189.14 245.499,188.342C246.383,187.2 246.223,186.693 244.902,186.237C244.658,186.154 244.407,186.079 244.156,186.038C242.729,185.801 241.695,184.919 241.098,183.475C239.926,180.647 238.163,178.432 235.976,176.551C234.899,175.623 233.967,174.452 233.073,173.288C231.93,171.797 230.588,171.393 229.071,172.259C227.947,172.899 226.808,173.636 225.897,174.598C223.706,176.912 221.043,176.804 219.34,174.02C218.196,172.151 216.563,171.727 214.773,171.652C213.848,171.613 213.052,172.134 212.824,173.196C212.289,175.689 211.004,177.587 209.337,179.22C208.8,179.713 208.15,180.108 207.752,180.716C205.924,183.514 203.525,183.715 200.497,182.802C199.56,182.521 198.696,181.887 197.753,181.692C196.812,181.498 195.816,181.649 194.835,181.556C196.394,180.82 197.968,180.216 199.7,180.751C200.357,180.955 201.007,181.194 201.671,181.365C203.007,181.707 204.194,181.423 205.2,180.289C206.529,178.794 207.935,177.382 209.221,175.842C210.045,174.854 209.843,174.246 208.683,173.944C207.939,173.751 207.171,173.635 206.409,173.581C204.878,173.472 203.516,173.012 202.542,171.576L202.484,171.578C201.559,173.28 200.722,175.056 199.681,176.66C198.223,178.904 196.042,179.014 193.791,178.94C194.793,174.507 198.078,171.768 202.484,171.578C202.493,171.562 202.502,171.545 202.511,171.528L202.554,171.576C201.689,168.686 201.064,168.225 198.423,168.682C197.54,168.834 196.682,169.162 195.809,169.387C193.977,169.863 192.328,169.332 190.781,168.175C192.921,169.12 194.9,168.338 196.877,167.539C197.157,167.425 197.441,167.317 197.723,167.206C201.661,165.64 201.998,165.712 204.535,169.389C205.558,170.872 206.757,171.541 208.727,171.064C206.489,169.398 204.477,167.76 205.243,164.256C207.555,165.784 209.352,167.568 209.082,171.143C210.419,170.61 211.557,170.155 212.824,169.649C212.182,168.147 211.74,166.71 210.996,165.514C210.563,164.821 209.692,164.335 208.934,164.084C207.881,163.735 206.75,163.661 205.648,163.527C203.819,163.305 202.658,162.073 201.56,160.01C203.968,161.743 206.324,161.965 208.777,162.009C209.667,162.025 210.683,162.851 211.394,163.604C212.666,164.954 213.763,166.516 214.909,168.013C215.781,169.15 216.754,169.843 218.177,169.978C219.165,170.072 220.188,170.703 221.046,171.347C222.436,172.392 223.543,174.149 225.549,172.828C228.239,171.059 229.439,168.794 229.108,165.93C228.845,163.665 227.735,162.357 225.596,161.996C223.418,161.627 221.493,160.715 219.897,158.979C219.73,158.796 219.593,158.577 219.542,158.215C220.141,158.544 220.716,158.952 221.341,159.181C222.467,159.591 223.613,160.137 224.769,160.197C228.831,160.406 231.386,162.993 231.662,167.614C231.734,168.826 232.096,169.622 232.973,170.202C235.071,171.588 237.168,172.975 239.263,174.362L239.258,174.333L239.258,174.332C239.089,173.26 238.873,172.195 238.763,171.114C238.579,169.319 239.118,167.83 240.393,166.689C241.811,169.526 241.483,171.687 239.258,174.332L239.259,174.338C240.355,176.27 241.572,178.129 242.514,180.152C243.409,182.076 244.644,183.147 246.53,183.496C248.333,183.829 250.135,184.262 251.884,184.85C253.815,185.5 254.882,187.053 255.146,189.38C255.277,190.553 255.692,191.683 256.055,193.14C257.091,191.633 257.78,190.486 258.603,189.48C259.493,188.393 260.703,188.168 262.18,188.176C261.035,190.864 259.978,193.262 256.938,193.188C256.943,193.313 256.949,193.439 256.953,193.564C258.301,194.426 259.595,195.424 261.006,196.116C263.448,197.314 265.087,199.108 265.582,202.189C265.822,203.682 266.605,204.2 267.407,203.623C267.812,203.332 268.264,202.552 268.198,202.08C267.503,197.035 266.815,191.985 265.902,186.987C265.292,183.646 263.01,181.698 260.545,180.054C259.858,179.364 259.187,178.655 258.481,177.989C256.247,175.877 254.456,173.423 253.483,170.255C253.207,169.357 252.819,168.423 252.258,167.741C251.748,167.12 250.902,166.387 250.257,166.444C246.59,166.771 243.177,165.301 239.637,164.764C238.838,164.644 238.041,164.489 237.398,164.376C236.505,165.522 235.758,166.693 234.813,167.604C234.37,168.031 233.548,167.956 232.66,168.164C233.561,166.021 234.536,164.472 236.264,164.333C235.183,162.983 234.013,161.521 232.842,160.059L232.804,160.029L232.812,160.022L232.847,160.062C231.679,157.981 230.07,156.462 228.148,155.34L228.137,155.358C226.262,158.414 223.497,159.358 220.634,157.795C222.652,155.498 224.84,154.112 227.762,155.064C225.946,153.458 223.74,153.337 221.594,153.074C219.984,152.876 218.353,152.884 216.732,152.805C215.364,152.74 214.227,153.278 213.332,154.464C213.027,154.867 212.7,155.252 212.369,155.628C210.844,157.351 209.137,158.463 206.878,157.672C205.185,155.632 203.64,155.248 201.457,156.254C200.433,156.725 199.393,157.168 198.33,157.507C196.32,158.15 194.689,157.672 193.116,155.995C195.893,157.603 198.278,156.419 200.602,154.766C202.321,153.544 204.025,153.558 205.782,154.742C206.947,155.527 208.19,155.887 209.402,154.802C209.402,154.783 209.402,154.763 209.401,154.743C206.551,153.272 205.226,151.259 205.385,148.632C205.399,148.404 205.462,148.179 205.505,147.938C208.2,149.181 209.357,151.223 209.401,154.743C209.416,154.75 209.43,154.757 209.444,154.765L209.402,154.812C210.527,153.551 211.779,152.396 212.738,150.99C213.429,149.972 212.897,148.778 212.093,148.034C210.775,146.813 210.426,145.327 210.727,143.515C210.82,142.953 210.788,142.36 210.77,141.784C210.733,140.649 210.231,139.986 209.196,139.912C208.982,139.896 208.769,139.867 208.558,139.837C204.961,139.319 203.016,136.918 202.766,132.438C204.221,134.723 205.376,137.159 208.37,137.437C206.229,133.717 204.268,130.2 207.085,126.124C209.819,129.057 210.418,133.272 208.711,137.417C209.887,138.152 211.062,138.885 212.341,139.683C212.574,137.025 212.799,134.242 215.723,133.387C216.197,136.223 215.174,138.549 212.843,140.187C212.966,141.742 213.083,143.195 213.196,144.648C213.208,144.792 213.206,144.939 213.205,145.083C213.19,147.272 215.166,147.872 215.931,149.451C216.845,151.339 218.327,151.601 220.02,151.023C222.686,150.112 225.195,150.395 227.664,151.968C228.907,152.761 230.355,153.138 231.712,153.703C231.79,153.551 231.867,153.398 231.946,153.246C231.672,152.73 231.435,152.181 231.115,151.706C229.588,149.438 228.751,146.938 228.853,144.041C228.924,142.047 228.46,140.201 227.201,138.718C226.09,137.409 224.787,136.909 223.139,137.256C221.823,137.535 220.444,137.603 219.104,137.527C217.946,137.462 217.308,136.53 217.172,135.215C217.153,135.023 217.121,134.829 217.131,134.637C217.287,131.433 216.897,128.468 214.311,126.42C216.461,127.455 218.131,128.767 218.432,131.712C218.885,136.153 219.232,136.332 223.03,135.433C225.763,134.786 227.986,136.228 229.091,139.366C230.373,142.999 230.527,143.039 232.979,140.38C234.679,138.538 236.421,138.265 238.357,139.708C235.804,139.055 234.385,140.551 233.313,142.818C233.041,143.393 232.542,143.843 232.111,144.307C230.477,146.069 230.443,148.667 232.219,150.197C233.678,151.454 234.224,153.102 234.517,155.014C235.181,159.343 238.224,161.508 242.064,160.432C243.121,160.137 243.61,159.297 243.746,158.147C243.953,156.378 243.445,154.809 242.256,153.731C240.502,152.14 240.301,150.222 240.984,148.037C241.302,147.022 241.164,146.36 240.354,145.731C239.328,144.937 238.877,143.804 239.276,142.353C241.088,143.384 241.849,145.006 241.554,147.134C241.234,149.435 241.365,151.444 243.301,153.028C245.18,154.564 246.152,156.68 245.258,159.487C244.853,160.761 245.819,161.211 246.692,161.358C247.829,161.549 248.989,161.592 250.14,161.642C254.289,161.82 256.457,163.33 257.952,168.998C258.149,169.748 258.652,170.406 259.066,171.063C259.257,171.368 259.566,171.588 259.841,171.814C262.206,173.753 264.576,175.683 267.13,177.489C265.36,174.218 263.643,170.909 261.806,167.69C260.682,165.721 260.011,163.646 259.96,161.314C259.917,159.292 259.494,157.549 257.808,156.383C256.713,155.629 256.389,154.267 256.322,152.856C256.058,147.222 256.477,147.982 252.504,145.093C250.596,143.707 249.694,141.81 249.558,139.198C249.461,137.316 249.032,135.376 248.391,133.631C247.583,131.435 245.029,131.173 243.587,132.927C241.566,135.386 238.958,135.286 237.164,132.622C236.615,131.809 236.224,130.86 235.616,129.696C236.827,130.835 237.693,131.863 238.73,132.575C240.248,133.619 242.001,132.941 242.755,131.228C243.393,129.777 243.042,128.49 241.816,127.634C241.108,127.139 240.432,126.587 239.742,126.06C238.008,123.163 238.31,120 238.946,116.784C239.095,117.995 239.208,119.215 239.4,120.416C240.002,124.176 241.803,126.937 244.842,128.647C245.489,129.011 246.114,129.424 246.759,129.793C249.278,131.235 250.678,133.52 250.99,136.716C251.206,138.946 251.728,141.08 253.199,142.739C253.433,143.002 253.732,143.188 254.001,143.409L253.957,143.366L253.959,143.368C253.973,143.361 253.986,143.355 254,143.349C253.979,141.687 253.947,140.025 253.941,138.364C253.933,135.427 255.536,133.749 257.567,132.356C258.817,135.908 257.662,140.746 255.09,142.827C254.778,143.081 254.37,143.184 254,143.349L254.001,143.39C255.129,143.986 256.244,145.002 257.391,145.05C259.832,145.151 262.316,144.905 264.735,144.467C266.57,144.136 267.529,142.547 267.654,140.423C267.701,139.605 267.684,138.782 267.705,137.962C267.749,136.289 267.149,135.097 265.761,134.405C264.193,133.623 263.376,132.215 263.447,130.278C263.549,127.506 262.31,125.845 260.154,124.861C259.967,124.775 259.799,124.631 259.516,124.442C262.32,124.563 263.699,125.868 264.379,128.69C264.677,129.92 265.037,131.232 265.701,132.225C266.76,133.809 268.05,133.584 269.023,131.927C270.273,129.801 270.043,127.512 269.27,125.391C268.537,123.385 268.771,121.95 270.168,120.509C271.451,119.186 271.085,117.424 270.732,115.662C272.045,117.497 272.226,119.445 271.318,121.382C270.132,123.911 270.824,128.658 272.722,130.465C273.097,130.822 273.726,130.91 274.252,130.977C275.808,131.178 277.371,131.397 278.933,131.422C279.585,131.433 280.393,131.163 280.878,130.691C283.281,128.347 283.651,128.174 287.109,128.764C286.327,129.062 285.755,129.202 285.248,129.489C284.19,130.088 283.103,130.66 282.144,131.431C280.612,132.663 278.992,133.361 277.11,133.024C275.4,132.718 273.729,132.596 272.083,133.426C270.518,134.213 269.699,135.479 269.634,137.452C269.576,139.228 269.54,141.042 269.198,142.765C268.492,146.326 266.414,148.157 263.194,148.375C260.251,148.573 260.329,148.558 260.826,151.872C261.093,153.653 261.791,155.053 262.927,156.217C265.292,158.642 266.346,161.695 266.377,165.248C266.391,166.753 266.689,168.101 267.866,169.202C267.985,168.367 267.979,167.582 268.229,166.918C268.471,166.272 268.976,165.754 269.55,164.909C269.857,167.043 269.69,168.52 268.234,169.357C269.695,171.727 271.142,174.071 272.659,176.533C272.772,175.005 272.814,173.584 272.99,172.181C273.402,168.916 274.856,166.803 277.726,166.225C280.769,165.611 282.022,163.718 282.31,160.225C282.507,157.829 282.859,155.448 283.079,153.052C283.128,152.518 283.011,151.899 282.798,151.415C282.345,150.385 281.776,149.421 281.229,148.382C279.184,148.875 277.043,149.686 275.493,146.907C277.554,146.272 279.441,146.038 280.876,147.805C281.034,145.305 281.199,142.721 281.383,139.805C280.529,138.908 278.869,138.002 279.656,135.21C280.422,136.36 280.967,137.34 281.656,138.167C282.489,139.167 282.044,140.241 281.991,141.306C281.886,143.432 281.778,145.55 282.687,147.543C283.56,149.451 284.955,150.054 286.604,149.065C292.217,145.693 296.766,141.23 298.51,133.956C298.72,133.074 298.837,132.162 298.992,131.263C299.452,128.606 298.853,126.512 296.596,125.197C293.744,123.536 293.238,120.502 293.186,117.233C293.673,118.395 294.12,119.579 294.652,120.713C296.525,124.708 299.757,125.738 302.935,123.04C306.078,120.373 309.564,119.161 313.388,118.844C313.712,118.817 314.04,118.841 314.39,118.925C310.694,120.238 306.908,121.309 303.698,124.711C307.308,123.374 310.619,122.34 313.431,125.854C309.535,128.315 306.883,128.055 303.517,124.854C301.344,127.042 300.924,130.154 300.006,133.175C301.183,132.534 302.181,131.726 303.28,131.465C304.32,131.217 305.468,131.542 306.567,131.831C304.66,134.048 302.637,135.456 299.927,133.726C299.305,135.745 298.734,137.602 298.159,139.459C297.422,141.841 296.186,143.8 294.447,145.415C292.368,147.345 290.382,149.404 288.345,151.393C285.878,153.803 284.868,156.929 284.813,160.522C284.79,161.872 284.808,163.223 284.808,164.82C287.211,162.737 289.581,160.793 292.788,162.687C290.453,165.151 288.144,167.271 284.689,165.184C284.032,168.496 281.151,169.265 279.393,171.517C281.171,171.746 282.972,171.682 283.8,173.848C281.873,174.537 280.596,173.997 279.049,171.803C276.891,173.819 275.428,176.199 275.381,179.509C275.353,181.535 275.271,183.565 275.109,185.583C274.81,189.291 276.023,192.511 277.573,195.605C278.222,196.899 279.346,197.073 280.07,195.848C281.57,193.312 283.628,191.47 285.542,189.419C286.228,188.685 286.455,187.394 286.886,186.355C287.495,184.894 288.098,183.429 288.704,181.967C290.172,180.864 291.274,179.458 292.041,177.608C292.81,175.75 294.219,174.617 296.028,174.091C298.917,173.25 299.74,171.357 298.853,168.121C298.493,166.813 298.357,165.426 298.122,164.076L298.116,164.044C298.116,164.044 298.082,164.081 298.083,164.08L298.082,164.081L298.084,164.073L298.09,164.035C293.317,162.368 290.305,156.947 291.538,152.227C296.15,154.44 298.864,159.333 298.09,164.035L298.095,164.037C298.992,161.137 299.619,158.243 299.269,155.076C299.007,152.721 300.146,150.961 302.081,149.88C304.562,148.492 304.545,148.455 304.273,145.204C302.286,144.608 299.875,144.508 299.406,141.141C301.345,141.501 303.133,141.896 304.236,144.289C304.521,142.389 304.768,140.736 305.03,139.004C305.03,140.941 305.027,142.754 305.033,144.567C305.034,144.856 305.063,145.146 305.103,145.433C305.448,147.977 305.712,148.149 307.725,147.127C308.464,146.753 309.197,146.363 310.331,145.772C309.615,145.115 308.888,144.695 308.507,144.025C308.153,143.404 308.17,142.513 307.958,141.396C309.676,142.448 310.527,143.677 310.505,145.634C311.808,144.982 313.019,144.376 314.228,143.772C314.247,143.748 314.267,143.725 314.287,143.702L314.311,143.691C314.345,143.098 314.421,142.505 314.395,141.917C314.252,138.689 314.633,135.735 317.465,133.971C318.987,138.008 317.632,142.155 314.311,143.691C314.311,143.704 314.31,143.717 314.309,143.731L314.228,143.772C313.677,144.429 313.202,145.226 312.544,145.683C310.037,147.424 307.468,149.044 304.919,150.704C304.106,151.234 303.234,151.667 302.476,152.281C301.402,153.151 300.992,154.41 300.945,155.923C300.864,158.413 300.688,160.905 300.471,163.386C300.338,164.888 300.45,166.222 301.328,167.469C303.417,170.441 303.278,171.551 300.694,173.931C300.608,174.01 300.561,174.141 300.45,174.324C302.728,174.324 304.956,174.58 307.12,174.258C309.749,173.868 311.61,171.764 313.145,169.489C313.637,168.761 313.644,167.468 313.597,166.452C313.479,163.854 312.89,161.232 313.092,158.682C313.256,156.619 312.95,155.329 311.459,154.156C310.175,153.146 310.006,151.554 310.422,149.622C312.151,151.062 313.633,152.416 313.526,155.283C313.809,154.826 313.945,154.584 314.1,154.36C315.818,151.841 317.345,149.105 319.309,146.86C321.924,143.871 322.961,140.323 323.308,136.328C323.358,135.758 323.618,135.212 323.801,134.659L323.803,134.499C323.802,134.498 323.802,134.498 323.802,134.497C323.822,134.492 323.843,134.487 323.863,134.482C324.465,133.027 324.955,131.492 325.713,130.15C326.456,128.835 327.721,128.324 329.137,128.257C328.593,132.078 327.259,133.635 323.863,134.482L323.836,134.547C323.825,134.585 323.813,134.622 323.801,134.659C323.754,137.778 323.92,140.93 322.577,144.048C325.921,143.052 329.145,142.837 332.426,143.481C331.025,143.741 329.622,143.984 328.225,144.26C322.025,145.488 321.436,145.923 317.304,151.288C314.089,155.46 314.37,160.218 315.297,165.122C315.344,165.371 315.554,165.583 315.791,165.994C316.222,165.453 316.597,165.026 316.928,164.559C318.541,162.288 320.613,161.121 323.198,161.383C325.282,161.594 327.036,161.125 328.498,159.256C329.083,158.508 330.032,158.023 330.896,157.679C332.154,157.18 332.908,156.27 333.261,154.881C333.533,153.819 333.806,152.751 333.985,151.667C334.341,149.503 335.61,148.616 337.395,148.394C338.541,148.251 339.715,148.249 340.828,147.953C342.359,147.547 343.843,146.927 345.261,146.428C344.356,147.726 343.143,148.851 341.435,149.26C340.186,149.56 338.937,149.898 337.736,150.367C336.569,150.821 335.945,151.791 336.12,153.28C336.372,155.423 335.526,156.879 333.907,157.912C333.056,158.456 332.247,159.098 331.467,159.766C330.819,160.32 330.692,161.062 331.571,161.415C333.816,162.318 336.063,163.287 338.38,163.866C339.881,164.241 340.962,162.798 341.974,161.702C343.397,160.157 345.158,159.892 347.001,159.773C345.063,160.489 343.648,161.893 342.327,163.624C340.193,166.423 337.195,166.892 334.263,165.238C333.318,164.706 332.351,164.223 331.095,163.559C332.366,167.029 333.152,170.211 330.229,172.819C328.16,169.515 328.293,167.271 330.819,163.527C328.653,162.64 326.571,161.863 324.279,163.024C323.364,163.487 322.282,163.506 321.324,163.886C320.591,164.174 319.75,164.534 319.28,165.169C317.074,168.154 314.98,171.244 312.854,174.281C312.886,174.285 313.142,174.321 313.401,174.353C315.641,174.637 317.878,174.964 320.123,175.186C321.348,175.307 322.618,175.454 323.817,175.237C327.409,174.588 330.72,175.324 333.735,177.551C334.908,178.416 335.98,178.485 337.19,177.867C338.099,177.402 339.024,176.975 339.941,176.533L339.944,176.494C337.97,175.318 337.47,174.373 337.714,172.169C339.331,173.09 340.081,174.496 339.944,176.494C339.956,176.501 339.968,176.508 339.98,176.515L339.939,176.56C341.755,175.866 342.101,175.382 342.015,173.366C341.891,170.518 343.038,168.581 345.422,167.224C344.899,168.186 344.445,168.954 344.052,169.76C343.407,171.086 343.056,172.424 343.222,174.038C343.311,174.903 342.782,176.15 342.168,176.745C340.72,178.146 339.054,179.258 337.323,180.607C338.53,181.627 339.686,182.875 341.049,183.646C341.774,184.056 342.884,183.759 343.784,183.571C345.531,183.202 347.277,182.803 348.874,183.984C349.668,184.573 350.451,185.318 350.983,186.193C351.626,187.245 352.38,187.703 353.449,187.597C355.48,187.393 357.31,186.594 358.933,185.194L358.934,185.192C358.732,185.088 358.42,185.047 358.345,184.874C357.172,182.12 357.907,178.996 360.213,177.128C361.022,180.119 360.993,182.855 358.934,185.192L358.887,185.246C359.868,184.844 360.849,184.443 362.023,183.963C358.767,187.896 355.322,190.528 350.395,188.553C349.853,190.052 349.44,191.488 350.372,192.832C352.714,196.209 352.447,198.859 350.398,202.533C350.24,202.814 350.068,203.088 349.9,203.371C350.48,204.593 351.265,205.769 350.293,207.296C349.22,205.766 349.379,204.252 349.857,202.645C350.287,201.201 350.663,199.728 350.934,198.237C351.21,196.73 350.507,195.514 349.943,194.183C349.282,192.619 348.885,190.835 348.706,189.103C348.44,186.516 347.161,185.177 344.855,185.589C343.638,185.805 342.435,186.125 341.011,186.449C342.649,187.346 344.259,188.05 344.324,190.468C342.322,189.928 340.758,189.063 340.663,186.854C339.629,186.157 338.75,185.688 337.998,185.034C336.239,183.509 334.569,181.847 332.801,180.334C332.103,179.737 331.242,179.383 330.456,178.919L330.456,178.922C333.529,182.826 333.781,187.574 331.11,191.258C328.854,188.696 328.293,183.405 329.928,180.284C330.149,179.859 330.283,179.378 330.456,178.922L330.451,178.916L330.456,178.916C328.944,178.779 327.369,178.266 325.93,178.572C320.806,179.66 315.763,179.353 310.689,178.237C309.76,178.033 308.623,178.272 307.738,178.71C304.94,180.094 302.074,181.04 299.043,181.513C297.678,181.726 296.358,182.41 295.059,182.997C293.668,183.625 293.037,184.808 293.288,186.564C293.565,188.504 293.073,190.207 291.798,191.563C291.439,191.945 290.985,192.225 290.551,192.502C290.332,192.643 290.113,192.785 289.897,192.928L288.065,195.762C287.986,195.84 287.908,195.918 287.83,195.997ZM216.497,205.055C214.853,208.49 213.57,210.601 212.079,211.785C210.587,212.969 208.888,213.225 206.412,212.951C207.285,208.105 212.319,204.111 216.497,205.055ZM312.135,203.177C313.082,204.828 313.579,206.308 313.634,207.673C313.689,209.038 313.301,210.289 312.479,211.481C310.374,208.78 310.232,205.863 312.135,203.177ZM346.056,209.783C344.636,209.161 343.747,208.609 343.219,207.908C342.69,207.207 342.522,206.357 342.545,205.137C344.802,205.669 346.131,207.388 346.056,209.783ZM330.783,209.409C330.01,207.969 329.591,206.664 329.58,205.52C329.57,204.375 329.968,203.393 330.829,202.598C332.293,205.171 332.298,207.262 330.783,209.409ZM197.91,208.296C198.953,206.735 200.208,205.684 201.517,205.201C202.826,204.719 204.188,204.805 205.446,205.518C203.241,208.887 200.46,209.911 197.91,208.296ZM302.353,208.636C301.216,208.955 300.287,208.944 299.556,208.596C298.825,208.248 298.292,207.564 297.944,206.539C300.148,206.096 301.521,206.747 302.353,208.636ZM304.272,201.274C305.541,201.983 306.628,203.145 307.27,204.421C307.911,205.697 308.106,207.087 307.588,208.252C304.481,206.229 303.524,204.214 304.272,201.274ZM234.351,208.032C234.434,204.582 235.033,201.87 236.111,199.89C237.189,197.91 238.746,196.664 240.745,196.147C241.367,201.98 239.015,206.41 234.351,208.032ZM230.534,199.625C231.005,201.41 231.122,202.784 230.848,203.892C230.574,205.001 229.91,205.843 228.82,206.564C227.865,203.433 228.521,200.777 230.534,199.625ZM355.814,204.223C354.391,203.638 353.465,203.049 352.921,202.311C352.378,201.573 352.217,200.686 352.327,199.503C354.774,200.436 355.815,201.809 355.814,204.223ZM340.092,196.028C341.782,196.516 343.037,197.218 343.886,198.167C344.735,199.116 345.178,200.313 345.244,201.789C341.897,201.263 339.973,199.111 340.092,196.028ZM332.345,200.618C332.421,199.645 332.999,198.782 333.809,198.234C334.619,197.685 335.66,197.45 336.661,197.732C335.703,199.703 334.384,200.837 332.345,200.618ZM199.835,194.126C202.506,194.04 204.742,194.542 206.427,195.593C208.113,196.644 209.248,198.245 209.718,200.357C203.792,200.338 201.244,199.108 199.835,194.126ZM347.874,199.643C348.28,199.072 348.656,198.555 349.111,198.228C349.567,197.901 350.102,197.765 350.826,197.954C350.147,199.193 349.44,200.077 347.874,199.643ZM362.659,199.556C360.417,198.465 358.857,197.138 357.926,195.478C356.994,193.817 356.69,191.824 356.96,189.4C360.549,190.231 363.519,195.523 362.659,199.556ZM219.284,195.148C218.035,196.859 216.797,197.924 215.531,198.363C214.265,198.802 212.971,198.616 211.61,197.825C213.758,194.76 216.579,193.747 219.284,195.148ZM251.328,194.882C250.243,196.41 249.196,197.351 248.111,197.741C247.027,198.131 245.905,197.971 244.67,197.294C246.443,194.672 248.814,193.787 251.328,194.882ZM311.008,197.267C311.263,196.203 311.586,195.462 312.039,194.981C312.492,194.5 313.074,194.278 313.845,194.251C313.39,196.539 312.63,197.348 311.008,197.267ZM230.365,196.739C227.523,194.923 225.655,193.338 224.614,191.524C223.574,189.71 223.362,187.667 223.831,184.935C228.152,186.586 230.958,191.592 230.365,196.739ZM293.373,196.093C292.166,196.386 291.34,196.448 290.705,196.215C290.07,195.983 289.625,195.456 289.183,194.573C290.803,193.813 292.289,194.322 293.373,196.093ZM335.079,194.135C334.959,192.703 335.041,191.635 335.361,190.827C335.681,190.018 336.239,189.468 337.072,189.071C337.538,191.724 336.979,193.198 335.079,194.135ZM350.41,191.358C351.705,191.243 352.636,191.328 353.33,191.67C354.024,192.013 354.482,192.613 354.828,193.526C352.579,194.049 350.926,193.382 350.41,191.358ZM343.899,193.202C344.528,192.072 345.118,191.339 345.798,190.922C346.479,190.504 347.25,190.404 348.243,190.539C347.561,192.875 345.746,193.988 343.899,193.202ZM325.224,192.07C325.118,190.967 325.202,190.108 325.492,189.453C325.783,188.798 326.28,188.346 327,188.058C327.187,190.482 326.784,191.39 325.224,192.07ZM194.638,190.681C195.375,188.266 196.432,186.424 197.696,185.247C198.96,184.071 200.433,183.56 202.002,183.808C200.267,189.207 198.355,191 194.638,190.681ZM234.716,190.522C233.077,189.548 232.036,188.649 231.469,187.611C230.903,186.573 230.81,185.396 231.066,183.865C233.807,185.149 235.135,187.525 234.716,190.522ZM209.532,190.248C208.223,190.397 207.283,190.317 206.575,189.937C205.867,189.558 205.39,188.879 205.005,187.834C206.976,187.306 208.669,188.17 209.532,190.248ZM301.412,186.821C300.228,188.458 299.043,189.473 297.769,189.894C296.496,190.315 295.135,190.142 293.6,189.404C295.023,186.507 298.856,185.241 301.412,186.821ZM218.37,190.054C217.111,189.644 216.066,189.206 215.343,188.526C214.62,187.846 214.218,186.924 214.246,185.547C216.599,185.801 218.216,187.514 218.37,190.054ZM281.832,183.851C282.846,184.364 283.804,185.34 284.386,186.449C284.967,187.558 285.172,188.8 284.678,189.849C282.817,188.431 281.117,186.947 281.832,183.851ZM323.827,189.411C322.579,189.634 321.669,189.609 320.979,189.277C320.288,188.945 319.817,188.306 319.446,187.304C321.578,186.76 323.144,187.512 323.827,189.411ZM209.34,179.235C209.454,179.196 209.598,179.108 209.654,179.156C212.178,181.289 212.783,185.984 210.939,189.039C208.56,186.501 207.995,183.034 209.34,179.235ZM361.571,185.403C363.203,185.007 364.621,185.012 365.742,185.403C366.863,185.795 367.687,186.573 368.13,187.721C365.511,188.966 363.074,188.137 361.571,185.403ZM309.606,186.697C308.106,185.795 307.128,184.881 306.587,183.787C306.047,182.693 305.945,181.42 306.2,179.8C308.988,181.106 310.563,184.565 309.606,186.697ZM234.678,184.76C236.069,183.847 237.331,183.4 238.48,183.421C239.63,183.442 240.668,183.931 241.611,184.889C239.148,187.008 236.526,186.959 234.678,184.76ZM304.28,185.354C303.359,185.097 302.483,184.83 301.809,184.316C301.135,183.802 300.663,183.042 300.55,181.799C302.598,181.794 304.052,183.137 304.28,185.354ZM321.759,185.045C322.062,184.195 322.369,183.415 322.82,182.831C323.272,182.248 323.869,181.859 324.752,181.793C324.398,184.039 323.727,184.797 321.759,185.045ZM317.923,184.189C316.811,183.442 316.116,182.782 315.757,182.052C315.398,181.322 315.374,180.524 315.603,179.499C317.448,180.421 318.281,182.044 317.923,184.189ZM250.352,183.619C248.953,181.351 248.196,179.603 248.042,178.017C247.888,176.431 248.337,175.007 249.35,173.385C252.083,177.058 252.391,181.065 250.352,183.619ZM356.899,172.777C356.256,176.353 355.546,178.863 354.375,180.556C353.204,182.249 351.572,183.123 349.084,183.428C349.632,177.464 352.859,173.007 356.899,172.777ZM184.49,181.264C186.171,180.046 187.74,179.471 189.223,179.541C190.706,179.611 192.104,180.325 193.443,181.685C191.732,184.163 186.634,183.923 184.49,181.264ZM224.101,176.221C224.521,178.177 224.64,179.529 224.387,180.602C224.134,181.674 223.51,182.468 222.441,183.306C221.341,180.698 221.982,177.838 224.101,176.221ZM344.918,178.165C345.108,179.547 345.075,180.57 344.766,181.37C344.457,182.171 343.873,182.75 342.96,183.243C342.413,180.87 343.16,178.933 344.918,178.165ZM260.53,180.054C259.644,180.787 258.789,181.577 257.862,182.238C256.403,183.276 254.968,182.895 253.454,181.962C255.587,179.821 257.765,178.545 260.53,180.054ZM364.857,177.587C365.071,179 365.027,180.077 364.7,180.903C364.373,181.728 363.762,182.301 362.844,182.705C362.536,180.045 363.086,178.602 364.857,177.587ZM244.691,182.627C244.308,181.425 244.15,180.548 244.232,179.828C244.314,179.109 244.636,178.547 245.214,177.977C246.092,179.847 246.099,181.785 244.691,182.627ZM236.783,178.175C234.994,180.25 233.514,181.472 232.063,181.932C230.612,182.392 229.19,182.091 227.519,181.119C230.359,177.414 234.064,176.251 236.783,178.175ZM288.699,181.953C288.507,181.915 288.239,181.95 288.144,181.821C286.406,179.45 286.377,174.75 288.053,172.3C288.155,172.149 288.186,171.934 288.301,171.603C290.177,175.253 290.959,178.56 288.699,181.953C288.703,181.954 288.706,181.954 288.709,181.955L288.704,181.967L288.676,181.988L288.675,181.99C288.683,181.977 288.691,181.965 288.699,181.953ZM279.852,178.384C279.107,179.457 278.592,180.065 278.048,180.348C277.504,180.63 276.932,180.587 276.074,180.357C276.893,178.539 278.085,177.888 279.852,178.384ZM219.101,174.875C218.199,177.164 217.325,178.552 216.314,179.32C215.303,180.088 214.154,180.237 212.702,180.048C213.35,176.692 216.407,174.222 219.101,174.875ZM260.545,180.054L260.565,180.075L260.562,180.071C260.551,180.065 260.54,180.059 260.53,180.054L260.536,180.048L260.545,180.054ZM209.337,179.22L209.35,179.208C209.346,179.217 209.343,179.226 209.34,179.235C209.331,179.238 209.322,179.241 209.313,179.243L209.337,179.22ZM205.762,178.57C204.584,178.775 203.686,178.714 202.973,178.339C202.259,177.963 201.729,177.271 201.288,176.214C203.285,175.608 205.121,176.574 205.762,178.57ZM335.449,172.823C334.796,174.09 334.23,174.867 333.57,175.274C332.91,175.68 332.155,175.716 331.126,175.499C331.985,173.388 333.347,172.521 335.449,172.823ZM232.255,173.186C231.772,174.152 231.324,174.753 230.762,175.072C230.2,175.391 229.525,175.427 228.588,175.266C229.223,173.498 230.555,172.742 232.255,173.186ZM322.833,174.949C323.189,173.103 323.704,171.828 324.405,171.015C325.106,170.202 325.993,169.85 327.093,169.85C326.968,172.722 325.028,175.043 322.833,174.949ZM187.972,174.739C188.343,173.215 189.037,171.997 189.965,171.167C190.893,170.338 192.053,169.896 193.358,169.924C192.893,173.085 190.659,175.082 187.972,174.739ZM343.867,172.964C345.356,171.971 346.595,171.459 347.707,171.416C348.818,171.374 349.802,171.801 350.779,172.688C348.524,174.915 346.051,175.047 343.867,172.964ZM308.271,161.712C309.194,164.843 309.516,167.27 309.206,169.218C308.897,171.166 307.955,172.636 306.352,173.852C304.416,168.462 305.18,164.047 308.271,161.712ZM247.883,167.126C247.437,169.06 246.908,170.358 246.136,171.207C245.364,172.055 244.348,172.453 242.927,172.587C243.08,169.688 245.214,167.292 247.883,167.126ZM298.342,171.825C297.2,172.137 296.278,172.123 295.549,171.77C294.821,171.417 294.286,170.725 293.919,169.681C296.256,169.314 297.574,169.953 298.342,171.825ZM253.03,170.316C251.869,171.139 251.008,171.563 250.231,171.605C249.454,171.647 248.762,171.308 247.94,170.605C249.503,169.026 251.299,168.902 253.03,170.316ZM341.501,170.295C340.132,170.336 339.091,170.089 338.314,169.507C337.537,168.925 337.026,168.009 336.716,166.71C339.091,166.504 341.038,167.961 341.501,170.295ZM322.287,168.621C321.3,169.401 320.519,169.809 319.796,169.862C319.074,169.914 318.41,169.612 317.659,168.972C319.083,167.547 320.584,167.407 322.287,168.621ZM228.073,169.746C226.666,169.906 225.681,169.834 224.963,169.459C224.245,169.084 223.794,168.405 223.458,167.349C225.768,167.002 227.117,167.675 228.073,169.746ZM224.658,163.586C222.623,165.82 221.043,167.134 219.508,167.626C217.973,168.119 216.483,167.79 214.628,166.741C217.219,162.992 221.195,161.712 224.658,163.586ZM326.191,167.687C325.276,167.174 324.705,166.7 324.388,166.091C324.07,165.483 324.006,164.741 324.104,163.69C325.732,164.336 326.504,165.815 326.191,167.687ZM353.822,162.946C352.718,164.961 351.472,166.333 350.156,167.032C348.839,167.732 347.452,167.76 346.066,167.087C348.221,163.325 351.168,161.735 353.822,162.946ZM187.419,158.257C189.912,159.055 191.846,160.286 193.138,161.838C194.43,163.39 195.081,165.263 195.007,167.348C189.375,165.456 187.422,163.221 187.419,158.257ZM275.752,166.563C273.206,164.947 271.566,163.544 270.661,161.935C269.755,160.327 269.585,158.512 269.978,156.07C274.522,158.567 276.731,162.551 275.752,166.563ZM201.369,165.866C199.699,165.534 198.484,164.959 197.671,164.086C196.859,163.212 196.449,162.04 196.39,160.513C199.28,160.891 201.298,163.061 201.369,165.866ZM214.367,162.885C213.224,161.43 212.58,160.155 212.41,158.915C212.239,157.675 212.541,156.47 213.289,155.158C215.259,157.188 215.705,160.205 214.367,162.885ZM281.187,162.834C279.763,161.841 278.825,160.758 278.365,159.56C277.904,158.362 277.92,157.048 278.402,155.595C280.805,157.21 282.327,160.46 281.187,162.834ZM336.2,162.625C336.431,161.469 336.802,160.611 337.326,160.035C337.851,159.459 338.529,159.164 339.377,159.135C339.106,161.483 338.125,162.561 336.2,162.625ZM259.521,161.932C258.508,162.004 257.749,161.856 257.199,161.456C256.65,161.056 256.31,160.403 256.134,159.464C257.985,159.404 259.015,160.154 259.521,161.932ZM252.197,149.39C253.087,152.453 253.462,154.646 253.202,156.431C252.942,158.217 252.047,159.595 250.398,161.03C248.519,155.636 249.325,151.645 252.197,149.39ZM232.804,160.029C232.059,160.62 231.311,160.857 230.599,160.746C229.888,160.635 229.213,160.175 228.615,159.374C230.176,158.499 231.023,158.628 232.804,160.029ZM325.688,160.74C324.953,159.368 324.607,158.211 324.655,157.15C324.703,156.089 325.145,155.124 325.986,154.137C327.351,156.308 327.232,158.923 325.688,160.74ZM206.859,157.702C206.245,158.752 205.726,159.389 205.148,159.697C204.57,160.006 203.933,159.986 203.083,159.722C203.964,157.884 205.065,157.294 206.859,157.702ZM237.657,154.458C238.671,155.317 239.323,156.134 239.645,156.979C239.967,157.824 239.96,158.698 239.654,159.67C237.549,158.205 236.849,156.347 237.657,154.458ZM355.022,148.154C354.451,151.843 353.723,154.373 352.531,156.067C351.34,157.761 349.684,158.619 347.256,158.966C347.615,153.237 350.5,149.174 355.022,148.154ZM315.227,156.986C316.544,155.976 317.799,155.452 318.951,155.417C320.103,155.381 321.153,155.833 322.06,156.774C319.358,159.009 317.102,159.08 315.227,156.986ZM206.878,157.672C206.89,157.687 206.903,157.702 206.915,157.716L206.877,157.672L206.878,157.672ZM206.859,157.702C206.865,157.692 206.871,157.682 206.877,157.672C206.877,157.672 206.915,157.716 206.913,157.715C206.895,157.711 206.877,157.706 206.859,157.702ZM301.371,155.178C302.901,154.122 304.213,153.571 305.411,153.513C306.61,153.455 307.696,153.889 308.776,154.805C306.474,157.245 303.565,157.414 301.371,155.178ZM264.425,156.595C264.209,155.183 264.259,154.041 264.591,153.13C264.922,152.22 265.535,151.54 266.443,151.052C267.014,153.99 266.412,155.64 264.425,156.595ZM343.437,155.209C341.828,155.922 340.541,156.175 339.453,155.946C338.366,155.718 337.479,155.008 336.67,153.797C339.07,152.321 341.735,152.844 343.437,155.209ZM193.867,145.275C196.364,146.462 198.047,147.649 199.039,149.103C200.032,150.557 200.334,152.278 200.07,154.532C195.422,152.463 193.24,148.973 193.867,145.275ZM183.503,150.215C185.754,149.845 187.499,149.966 188.844,150.622C190.189,151.278 191.133,152.469 191.782,154.241C187.515,155.104 184.437,153.304 183.503,150.215ZM268.659,146.501C270.741,146.77 272.438,147.51 273.66,148.639C274.882,149.767 275.63,151.285 275.813,153.109C271.088,152.429 268.895,150.491 268.659,146.501ZM330.164,147.169C331.489,147.887 332.365,148.594 332.893,149.443C333.42,150.291 333.599,151.28 333.531,152.561C330.972,151.665 329.784,149.81 330.164,147.169ZM243.522,152.359C243.759,150.374 244.347,148.768 245.198,147.64C246.05,146.512 247.166,145.862 248.462,145.789C248.2,149.738 246.666,151.816 243.522,152.359ZM320.978,147.854C322.884,147.628 324.372,147.779 325.528,148.341C326.683,148.902 327.505,149.873 328.077,151.289C324.849,152.338 322.144,151.069 320.978,147.854ZM235.197,147.051C236.467,147.051 237.509,147.348 238.31,147.933C239.112,148.517 239.672,149.389 239.977,150.538C237.657,151.034 235.772,149.658 235.197,147.051ZM223.148,150.1C221.19,149.479 219.756,148.32 218.923,146.784C218.091,145.247 217.86,143.334 218.307,141.205C221.589,141.954 223.789,145.936 223.148,150.1ZM293.238,147.109C294.433,146.909 295.377,146.982 296.111,147.339C296.845,147.697 297.369,148.339 297.725,149.278C295.418,149.812 294.228,149.26 293.238,147.109ZM317.589,143.287C318.18,144.17 318.497,144.947 318.544,145.695C318.592,146.443 318.37,147.163 317.884,147.931C316.596,146.101 316.519,144.901 317.589,143.287ZM343.207,136.518C343.596,139.04 343.513,141.386 342.943,143.321C342.373,145.256 341.317,146.78 339.762,147.66C338.33,143.236 339.909,138.127 343.207,136.518ZM282.803,147.104C283.103,145.442 283.736,144.097 284.601,143.178C285.466,142.258 286.564,141.762 287.793,141.798C286.944,145.426 285.382,147.471 282.803,147.104ZM352.942,145.125C351.289,146.335 350.044,146.877 348.973,146.88C347.902,146.883 347.006,146.347 346.051,145.402C348.637,143.323 351.041,143.226 352.942,145.125ZM210.264,145.007C207.187,146.031 205.125,146.388 203.481,146.007C201.837,145.626 200.613,144.507 199.211,142.578C202.039,139.932 208.488,141.35 210.264,145.007ZM292.849,134.362C293.723,137.239 294.053,139.308 293.798,140.98C293.543,142.651 292.704,143.926 291.241,145.214C289.348,141.638 290.018,136.87 292.849,134.362ZM224.378,143.296C225.064,142.904 225.743,142.548 226.432,142.447C227.122,142.346 227.821,142.5 228.545,143.128C226.889,144.665 225.541,144.719 224.378,143.296ZM265.729,143.62C263.609,142.398 262.26,141.214 261.536,139.883C260.811,138.553 260.71,137.075 261.084,135.266C264.961,137.417 266.513,140.628 265.729,143.62ZM233.971,142.672C234.806,142.019 235.505,141.674 236.163,141.623C236.821,141.572 237.438,141.815 238.109,142.338C236.749,143.735 235.528,143.853 233.971,142.672ZM273.918,141.483C272.935,142.185 272.239,142.547 271.612,142.586C270.985,142.625 270.427,142.341 269.723,141.752C271.124,140.455 272.399,140.345 273.918,141.483ZM333.688,135.387C333.837,137.141 333.512,138.839 332.861,140.137C332.211,141.435 331.234,142.332 330.081,142.485C330.078,138.258 330.94,136.191 333.688,135.387ZM240.46,140.38C242.108,138.971 243.744,138.171 245.229,137.995C246.714,137.818 248.048,138.264 249.094,139.348C246.042,142.292 243.439,142.629 240.46,140.38ZM274.131,133.281C275.565,134.213 276.545,135.217 277.109,136.356C277.672,137.495 277.819,138.767 277.587,140.235C274.9,139.223 273.553,136.566 274.131,133.281ZM229.801,129.047C231.654,130.928 232.792,132.703 233.246,134.467C233.7,136.231 233.469,137.983 232.586,139.819C228.972,136.011 228.284,132.415 229.801,129.047ZM202.689,134.496C200.283,136.39 198.396,137.452 196.675,137.663C194.953,137.874 193.397,137.234 191.652,135.725C195.906,132.244 199.825,131.695 202.689,134.496ZM312.045,133.904C311.314,135.49 310.49,136.556 309.529,137.129C308.568,137.701 307.47,137.78 306.194,137.391C307.249,134.734 310.207,132.746 312.045,133.904ZM238.519,134.558C238.097,135.627 237.647,136.321 237.083,136.697C236.52,137.073 235.842,137.13 234.966,136.925C235.882,134.941 236.816,134.319 238.519,134.558ZM287.13,135.558C285.684,135.542 284.648,135.294 283.891,134.723C283.135,134.153 282.658,133.261 282.333,131.957C284.817,131.867 286.6,133.177 287.13,135.558ZM247.538,133.01C246.994,134.134 246.545,134.813 246.01,135.177C245.474,135.541 244.851,135.59 243.96,135.454C244.643,133.555 245.684,132.819 247.538,133.01ZM223.059,127.108C224.083,128.615 224.667,129.964 224.824,131.226C224.981,132.488 224.711,133.661 224.029,134.815C221.795,132.383 221.435,129.722 223.059,127.108ZM322.772,134.096C320.906,132.725 319.634,131.511 318.957,130.175C318.279,128.839 318.196,127.381 318.706,125.522C322.031,127.505 323.573,130.686 322.772,134.096ZM291.513,129.252C293.191,129.209 294.643,129.658 295.739,130.49C296.835,131.323 297.575,132.54 297.829,134.032C293.621,133.696 292.206,132.444 291.513,129.252ZM253.89,128.146C253.639,129.725 253.333,130.759 252.832,131.45C252.331,132.141 251.635,132.489 250.604,132.697C250.528,130.418 251.773,128.645 253.89,128.146ZM240.663,132.282C239.701,131.637 239.121,131.112 238.824,130.502C238.526,129.893 238.511,129.2 238.678,128.22C240.442,129.166 241.097,130.505 240.663,132.282ZM202.656,131.331C201.234,130.127 200.357,129.061 199.941,127.923C199.526,126.785 199.572,125.576 199.998,124.085C202.272,125.183 203.528,128.52 202.656,131.331ZM215.956,130.222C214.904,130.72 214.168,130.936 213.543,130.844C212.918,130.751 212.405,130.35 211.8,129.615C213.375,128.606 214.617,128.759 215.956,130.222ZM262.923,128.836C261.224,130.143 259.848,130.735 258.664,130.759C257.479,130.783 256.487,130.238 255.556,129.272C257.702,127.061 260.822,126.876 262.923,128.836ZM266.732,126.245C267.62,126.77 268.196,127.292 268.529,127.925C268.862,128.558 268.952,129.303 268.865,130.276C267.177,129.607 266.517,128.403 266.732,126.245ZM245.433,128.58C244.878,124.864 244.821,122.27 245.436,120.273C246.051,118.277 247.338,116.879 249.472,115.556C250.704,121.201 249.377,126.774 245.433,128.58ZM281.886,117.092C283.265,119.593 283.974,121.683 284.022,123.534C284.07,125.384 283.457,126.995 282.195,128.54C279.631,124.733 279.491,120.25 281.886,117.092ZM287.426,128.436C287.478,126.42 287.835,125.01 288.464,124.056C289.092,123.103 289.991,122.607 291.125,122.42C291.076,125.7 289.729,127.891 287.426,128.436ZM219.676,115.803C220.506,118.602 220.742,121.023 220.396,123.036C220.05,125.049 219.121,126.653 217.621,127.818C215.465,123.626 216.303,118.536 219.676,115.803ZM276.628,124.425C276,125.852 275.378,126.768 274.624,127.276C273.87,127.783 272.985,127.882 271.831,127.672C272.575,125.353 274.357,124.116 276.628,124.425ZM239.708,126.041C239.484,126.258 239.281,126.611 239.03,126.662C237.857,126.9 236.67,127.06 235.487,127.239C232.807,127.643 230.914,126.194 229.334,123.931C232.07,122.55 236.697,122.589 238.789,125.2C239.05,125.527 239.394,125.766 239.708,126.041ZM239.708,126.041L239.712,126.037C239.712,126.037 239.755,126.081 239.754,126.081C239.739,126.068 239.723,126.054 239.708,126.041ZM239.742,126.06C239.747,126.068 239.751,126.075 239.755,126.081L239.712,126.037L239.742,126.06ZM212.905,125.084C210.231,124.166 208.44,123.173 207.321,121.837C206.203,120.502 205.756,118.824 205.77,116.536C210.651,118.044 213.113,121.274 212.905,125.084ZM262.001,124.272C261.579,121.249 261.513,119.119 261.998,117.483C262.483,115.847 263.518,114.706 265.295,113.659C266.53,117.882 265.187,122.307 262.001,124.272ZM253.357,114.233C255.433,115.437 256.919,116.897 257.784,118.49C258.649,120.082 258.892,121.808 258.483,123.543C253.797,120.743 252.629,118.418 253.357,114.233ZM297.157,123.099C296.577,120.899 296.528,119 297.003,117.413C297.478,115.826 298.476,114.552 299.987,113.602C301.01,116.921 300.187,121.59 297.157,123.099ZM305.877,120.426C304.303,117.537 303.47,114.908 303.399,112.566C303.329,110.223 304.02,108.167 305.494,106.424C308.982,113.32 308.949,115.899 305.877,120.426ZM231.833,111.948C233.803,112.578 235.478,113.651 236.599,115.007C237.721,116.364 238.291,118.005 238.052,119.773C233.296,117.909 231.806,116.168 231.833,111.948ZM315.559,117.826C317.782,116.132 319.626,115.255 321.264,115.088C322.901,114.921 324.333,115.463 325.732,116.607C322.832,120.033 318.763,120.558 315.559,117.826ZM311.355,118.469C311.34,116.754 311.626,115.415 312.229,114.425C312.832,113.435 313.753,112.793 315.008,112.473C315.148,115.633 313.313,118.465 311.355,118.469ZM272.672,117.869C272.699,115.278 272.95,113.467 273.6,112.159C274.249,110.852 275.296,110.047 276.918,109.469C277.625,113.127 275.511,117.311 272.672,117.869ZM245.862,108.227C245.69,110.605 245.013,112.602 243.93,114.097C242.847,115.591 241.359,116.583 239.564,116.951C239.375,112.528 242.015,108.821 245.862,108.227ZM283.804,109.416C286.271,109.671 288.258,110.443 289.7,111.665C291.143,112.888 292.04,114.562 292.326,116.622C287.684,116.684 284.134,113.72 283.804,109.416ZM297.545,108.109C297.68,109.851 297.257,111.526 296.454,112.842C295.652,114.159 294.469,115.116 293.084,115.422C292.979,111.378 294.499,108.887 297.545,108.109ZM238.145,105.092C239.204,106.975 239.756,108.646 239.811,110.173C239.867,111.7 239.425,113.082 238.497,114.387C236.148,111.316 235.994,107.9 238.145,105.092ZM266.667,106.74C268.103,107.596 269.136,108.678 269.725,109.9C270.314,111.122 270.46,112.485 270.122,113.905C267.039,112.206 265.85,109.739 266.667,106.74Z" />
	<g id="Stammbrueder">
		<path fill="black" d="M537.92,295.413C538.426,294.805 538.173,294.096 536.45,291.562L534.373,288.472L534.373,276.92L536.045,275.906C536.906,275.349 537.768,274.893 537.92,274.893C538.325,274.893 544,290.245 544,291.36C544,291.866 543.493,292.829 542.936,293.488C542.024,294.4 541.922,294.754 542.48,295.413C542.986,296.021 544.608,296.173 551.6,296.173C562.341,296.173 562.645,296.021 558.896,291.36C558.034,290.245 556.97,288.674 556.514,287.813C555.653,286.04 549.066,268.509 549.066,267.951C549.066,267.698 550.08,266.887 551.346,266.127C552.562,265.317 554.285,263.898 555.096,262.935L556.666,261.162L556.666,248.394C556.666,229.647 557.781,230.61 536.4,230.407C528.192,230.306 520.997,230.357 520.338,230.559C518.818,230.914 518.818,232.333 520.389,234.207C522.77,237.095 522.72,236.589 522.72,263.239C522.72,289.89 522.77,289.384 520.389,292.272C519.072,293.842 518.818,295.413 519.832,295.818C520.136,295.97 524.24,296.122 528.85,296.122C535.69,296.173 537.413,296.021 537.92,295.413ZM424.932,295.058C426.148,294.4 427.618,293.234 428.175,292.474C429.188,291.056 429.239,290.296 429.492,264.05L429.746,237.095L431.418,234.866C433.191,232.434 433.444,231.066 432.228,230.61C431.772,230.458 427.82,230.306 423.412,230.306C416.775,230.306 415.255,230.458 414.596,231.117C413.684,231.978 413.684,231.927 416.167,235.575L417.839,238.007L417.839,286.546L407.199,286.546L407.199,237.551L408.466,235.829C410.644,232.839 410.999,231.927 410.239,231.066C409.682,230.407 408.263,230.306 400.967,230.407C393.519,230.559 392.303,230.661 391.796,231.421C391.391,232.079 391.593,232.687 392.911,234.309C393.823,235.423 394.785,236.943 395.039,237.653C395.343,238.463 395.545,249.154 395.545,265.519L395.545,292.069L396.711,293.386C398.738,295.717 400.916,296.122 412.266,296.173C422.095,296.173 422.804,296.122 424.932,295.058ZM469.519,295.058C473.725,292.93 473.573,293.994 473.573,263.949C473.573,236.994 473.471,235.322 471.597,233.143C469.469,230.711 468.658,230.559 452.901,230.407C435.066,230.205 434.711,230.306 438.359,234.917L440.132,237.146L440.132,289.434L438.359,291.664C434.812,296.122 435.015,296.173 452.546,296.173C466.834,296.173 467.341,296.122 469.519,295.058ZM340.876,294.805C341.838,294.197 342.953,293.082 343.257,292.373C343.662,291.461 343.865,286.901 343.865,277.933L343.865,264.81L342.294,263.037C341.433,262.074 339.964,260.757 339.001,260.149L337.228,259.085L339.052,257.058C340.065,255.994 341.078,254.525 341.332,253.815C341.636,253.106 341.838,249.053 341.838,244.797C341.838,237.805 341.737,236.893 340.724,234.866C338.545,230.61 338.292,230.559 320.356,230.559C302.116,230.559 302.268,230.509 305.51,234.663C306.524,235.981 307.486,237.754 307.638,238.615C307.79,239.477 307.892,251.13 307.79,264.557L307.638,288.877L305.662,291.765C302.47,296.376 301.964,296.274 322.028,296.072C338.596,295.92 339.102,295.869 340.876,294.805ZM513.093,295.16C514.056,294.197 514.106,293.488 514.106,284.57C514.106,279.301 513.954,274.64 513.802,274.184C513.245,272.765 511.421,273.322 507.013,276.312L502.706,279.2L502.402,286.597L494.093,286.293L493.941,281.125L493.789,275.906L498.501,272.917C506.304,267.951 505.543,269.117 505.391,262.581C505.189,255.538 505.037,255.487 498.754,259.439C496.271,260.959 494.194,262.226 494.042,262.226C493.738,262.226 493.789,241.655 494.143,240.743C494.397,240.085 495.258,239.933 498.45,239.933L502.402,239.933L502.554,245.354C502.706,249.914 502.858,250.826 503.517,250.978C504.631,251.181 511.776,246.823 513.144,245.101C514.106,243.885 514.157,243.226 514.005,237.754C513.853,232.485 513.752,231.674 512.89,231.015C512.08,230.458 508.888,230.306 495.815,230.306C476.461,230.306 476.815,230.154 480.919,235.829L482.186,237.551L482.186,288.978L480.413,291.562C478.538,294.248 478.234,295.413 479.298,295.818C479.602,295.97 487.151,296.122 496.018,296.122C511.421,296.173 512.13,296.122 513.093,295.16ZM368.084,295.008C368.185,294.501 367.476,292.88 366.463,291.461L364.639,288.826L364.639,276.97L366.209,275.856C367.071,275.248 367.932,274.944 368.185,275.197C368.743,275.805 374.265,290.498 374.265,291.41C374.265,291.816 373.759,292.626 373.151,293.234C372.34,294.045 372.239,294.501 372.593,295.109C372.999,295.768 374.417,295.92 380.903,296.072C385.209,296.122 389.212,296.072 389.871,295.92C391.543,295.514 391.289,293.842 389.161,291.512C388.199,290.397 386.932,288.472 386.375,287.205C384.196,282.037 379.281,268.559 379.433,268.002C379.535,267.647 380.751,266.583 382.119,265.621C386.932,262.327 386.932,262.378 386.932,248.343C386.932,234.461 386.729,233.498 383.081,231.623C381.257,230.61 380.092,230.559 366.412,230.407C358.356,230.306 351.263,230.357 350.604,230.559C348.983,230.965 349.135,232.282 351.212,235.373L352.985,238.007L352.985,288.978L351.212,291.309C349.54,293.538 349.033,295.109 349.793,295.869C349.996,296.021 354.151,296.122 359.015,296.072C367.121,295.92 367.932,295.818 368.084,295.008ZM319.545,286.597L319.545,270.383L323.244,267.85L326.993,265.317L329.628,267.647L332.212,269.927L332.11,278.085L331.958,286.293L325.777,286.445L319.545,286.597ZM451.786,286.546L451.786,239.882L456.498,240.034L461.159,240.186L461.311,263.391L461.413,286.546L451.786,286.546ZM534.373,252.093L534.373,239.882L539.592,240.034L544.76,240.186L544.76,257.362L539.794,260.807C537.058,262.733 534.728,264.253 534.576,264.253C534.474,264.253 534.373,258.781 534.373,252.093ZM364.639,252.093L364.639,239.882L369.857,240.034L375.025,240.186L375.177,248.647L375.279,257.058L370.617,260.301C368.033,262.125 365.601,263.746 365.297,263.949C364.791,264.253 364.639,261.719 364.639,252.093ZM319.545,249.053L319.545,239.882L324.764,240.034L329.932,240.186L330.084,245.405C330.134,248.242 329.982,250.978 329.729,251.485C329.324,252.245 321.774,257.311 319.95,258.071C319.748,258.173 319.545,254.119 319.545,249.053ZM405.181,215.106C410.598,215.112 410.746,215.342 410.746,220.679C410.746,221.707 410.677,222.763 410.575,223.618C410.482,224.406 410.36,225.023 410.239,225.29C409.783,226.151 409.124,226.253 404.919,226.253C399.244,226.253 399.092,226.101 399.092,220.679C399.092,219.133 399.105,218.015 399.254,217.208C399.334,216.777 399.452,216.434 399.629,216.161L399.643,216.14C399.718,216.028 399.803,215.928 399.9,215.839C399.922,215.818 399.945,215.798 399.968,215.779C400.036,215.723 400.109,215.671 400.188,215.624L400.271,215.577C400.395,215.511 400.532,215.454 400.684,215.405C401.546,215.126 402.874,215.106 404.919,215.106L405.181,215.106ZM419.956,215.106C414.539,215.112 414.391,215.342 414.391,220.679C414.391,221.707 414.46,222.763 414.561,223.618C414.655,224.406 414.776,225.023 414.898,225.29C415.354,226.151 416.013,226.253 420.218,226.253C425.893,226.253 426.045,226.101 426.045,220.679C426.045,219.133 426.032,218.015 425.883,217.208C425.803,216.777 425.684,216.434 425.508,216.161L425.494,216.14C425.419,216.028 425.334,215.928 425.237,215.839C425.215,215.818 425.192,215.798 425.168,215.779C425.101,215.723 425.028,215.671 424.949,215.624L424.866,215.577C424.742,215.511 424.604,215.454 424.453,215.405C423.591,215.126 422.263,215.106 420.218,215.106L419.956,215.106Z" id="brueder" />
		<path fill="black" d="M95.133,296.011C96.349,295.555 96.095,294.339 94.423,292.414C93.258,291.097 92.903,290.235 92.903,288.563L92.903,286.385L100.605,282.23C104.81,279.95 108.357,278.177 108.509,278.278C108.61,278.43 109.319,281.217 110.13,284.51C111.65,290.793 111.65,290.894 109.522,293.883C109.066,294.542 109.066,294.897 109.573,295.505C110.13,296.163 111.549,296.315 117.983,296.315C122.29,296.315 126.09,296.163 126.546,296.011C127.762,295.555 127.559,294.39 125.887,292.313C125.127,291.299 124.013,289.577 123.405,288.462C122.037,285.675 110.637,239.568 110.637,236.63C110.637,236.072 111.093,235.059 111.65,234.35C112.866,232.83 112.967,231.158 111.853,230.752C111.397,230.6 106.786,230.448 101.517,230.448C90.319,230.448 90.015,230.55 92.143,234.198L93.461,236.478L90.877,247.523C89.509,253.603 86.519,265.561 84.34,274.123C81.047,287.094 80.135,290.033 78.919,291.553C76.588,294.491 76.487,294.593 76.842,295.505C77.146,296.214 78.26,296.315 85.759,296.315C90.471,296.315 94.677,296.163 95.133,296.011ZM148.282,295.201C148.738,294.542 148.434,293.883 146.965,291.958L145.09,289.577L145.09,276.606L145.141,263.635L146.813,268.195C147.725,270.729 149.802,276.707 151.424,281.571L154.362,290.337L153.197,292.515C151.322,296.011 151.88,296.315 160.037,296.315C168.194,296.315 168.752,296.011 166.877,292.515L165.712,290.337L170.424,276.505C173.008,268.854 175.237,262.52 175.338,262.368C175.44,262.267 175.49,268.195 175.389,275.643L175.237,289.121L173.261,291.958C170.373,296.163 170.626,296.315 181.165,296.315C191.602,296.315 191.805,296.163 187.904,290.793L186.637,289.07L186.637,237.643L188.461,235.008C191.298,230.854 191.146,230.702 182.685,230.55C175.693,230.448 175.44,230.448 174.274,231.614C173.464,232.475 171.234,238.403 166.573,252.387L160.037,271.995L153.45,252.235C149.853,241.392 146.458,232.019 145.952,231.462C145.141,230.499 144.634,230.448 137.591,230.55C128.927,230.702 128.674,230.904 131.613,234.806L133.437,237.187L133.437,289.323L131.663,291.755C128.471,296.113 128.978,296.366 139.466,296.214C146.56,296.062 147.826,295.961 148.282,295.201ZM211.667,296.011C212.883,295.555 212.629,294.39 210.704,291.755L208.931,289.323L208.931,276.505C208.931,269.411 209.133,263.99 209.387,264.395C209.589,264.801 211.717,270.779 214.048,277.67L218.253,290.134L217.088,292.515C215.315,296.062 215.771,296.315 223.877,296.315C232.035,296.315 232.541,296.011 230.768,292.515L229.653,290.235L234.264,276.707C236.797,269.259 238.976,263.078 239.077,262.926C239.229,262.824 239.331,268.55 239.331,275.643L239.331,288.614L237.253,291.705C234.213,296.214 234.365,296.315 245.005,296.315C255.443,296.315 255.646,296.163 251.744,290.793L250.478,289.07L250.478,237.694L251.744,235.971C255.544,230.752 255.24,230.448 246.424,230.448C239.533,230.448 239.229,230.499 238.165,231.664C237.557,232.374 234.467,240.632 230.616,251.982C227.069,262.52 224.08,271.185 224.029,271.286C223.928,271.337 220.837,262.47 217.139,251.576C213.288,240.227 210.045,231.462 209.589,231.107C208.677,230.398 196.112,230.144 194.541,230.752C193.325,231.208 193.578,232.323 195.504,234.856L197.277,237.187L197.277,289.577L195.504,291.907C192.362,296.011 192.869,296.315 202.901,296.315C207.309,296.315 211.211,296.163 211.667,296.011ZM70.61,295.555C71.116,294.947 70.863,294.238 69.14,291.705L67.063,288.614L67.063,239.923L69.698,240.227C71.927,240.531 72.687,240.886 74.663,242.862C78.919,247.067 79.831,246.054 79.628,236.984L79.476,230.296L61.236,230.296L42.996,230.347L42.996,237.339C42.996,243.216 43.148,244.331 43.807,244.787C44.668,245.344 44.719,245.294 48.924,242C49.988,241.139 51.61,240.48 53.028,240.278L55.41,239.923L55.41,264.345C55.41,289.982 55.46,289.526 53.079,292.414C51.762,293.985 51.508,295.555 52.522,295.961C52.826,296.113 56.93,296.265 61.54,296.265C68.38,296.315 70.103,296.163 70.61,295.555ZM36.511,294.694C39.906,292.465 40.21,291.249 40.21,279.899C40.21,269.057 39.956,267.739 37.372,265.358C36.562,264.598 32.356,261.558 28.049,258.568C23.743,255.579 20.044,252.894 19.841,252.539C19.639,252.235 19.436,249.296 19.436,246.054L19.436,240.075L27.543,240.075L27.543,244.027C27.543,247.523 27.695,248.131 28.708,249.043C30.481,250.715 35.802,253.755 36.967,253.755C38.994,253.755 39.196,252.944 39.196,244.331C39.196,236.68 39.146,236.072 38.031,234.502C35.802,231.107 34.433,230.702 24.452,230.55C14.521,230.347 12.14,230.752 9.657,232.982L8.036,234.4L8.036,257.758L9.759,259.531C10.721,260.494 15.18,263.838 19.74,266.979C24.807,270.475 28.049,273.059 28.252,273.718C28.404,274.275 28.556,277.467 28.556,280.761L28.556,286.689L19.436,286.689L19.436,281.571C19.436,276.505 19.436,276.454 17.916,275.035C17.055,274.225 14.927,272.857 13.255,271.995C10.468,270.627 10.012,270.526 9.1,271.185C8.087,271.843 8.036,272.401 7.884,280.659C7.833,285.523 7.884,289.982 8.036,290.59C8.441,292.363 11.279,295.251 13.052,295.758C13.913,296.062 19.081,296.214 24.553,296.163C34.383,296.062 34.484,296.062 36.511,294.694ZM96.754,270.019C97.109,268.449 98.325,263.179 99.49,258.315C100.605,253.451 101.618,249.246 101.669,248.992C101.77,248.638 105.469,264.851 105.722,266.878C105.773,267.334 103.847,268.651 100.959,270.222L96.095,272.857L96.754,270.019Z" id="Stamm" />
	</g>
	<path fill="black" d="M233.985,355.725C232.207,355.409 230.852,354.17 230.852,352.391C230.852,350.257 232.652,348.224 236.986,345.49C238.419,344.59 238.519,344.457 238.519,343.023C238.519,342.19 238.619,341.157 238.753,340.723C238.919,340.123 238.519,340.39 237.119,341.823C235.586,343.39 235.119,343.69 234.119,343.69C233.452,343.69 232.586,343.424 232.186,343.09C231.486,342.523 231.386,342.523 229.819,343.29C227.785,344.324 226.252,344.09 225.052,342.657L224.185,341.657L222.985,342.557C222.152,343.223 221.285,343.524 220.052,343.624C218.451,343.757 218.185,343.657 217.118,342.723C216.051,341.823 215.885,341.757 215.485,342.223C214.018,343.99 210.851,344.124 209.151,342.49C207.917,341.29 207.651,339.857 208.317,337.59C209.084,334.956 209.018,334.356 208.017,334.356C207.384,334.356 206.884,334.856 205.651,336.79C202.45,341.79 200.484,343.49 197.417,343.89C192.383,344.59 188.883,340.523 190.283,335.656C191.483,331.623 194.317,328.989 197.017,329.489C199.55,329.989 200.35,333.09 198.584,335.556C197.617,336.89 195.683,338.69 194.65,339.29C193.817,339.757 194.317,340.623 195.75,341.223C197.217,341.857 198.917,341.49 200.45,340.19C201.384,339.39 204.851,334.556 204.851,334.023C204.851,333.856 204.351,333.423 203.717,333.056C201.584,331.723 201.35,329.456 203.184,327.656C204.484,326.322 206.817,326.289 208.084,327.556C208.818,328.289 208.918,328.623 208.784,330.056L208.618,331.689L209.684,331.489C210.984,331.256 212.718,332.056 213.018,333.023C213.118,333.356 212.918,334.856 212.518,336.323C211.618,339.623 211.718,340.823 212.851,340.957C213.418,341.023 213.985,340.757 214.551,340.123C215.385,339.223 215.451,338.957 215.618,334.623L215.785,330.056L214.818,329.723C214.285,329.556 213.851,329.256 213.851,329.123C213.851,328.423 214.951,327.356 215.651,327.356C216.318,327.356 216.485,327.122 216.651,326.022C216.751,325.289 217.085,324.089 217.385,323.356C218.051,321.722 218.985,321.589 220.318,322.922C221.318,323.889 221.318,324.322 220.385,326.456L219.818,327.756L220.918,327.489C222.652,327.122 222.885,327.156 223.385,327.856C224.052,328.856 223.485,329.423 221.518,329.623C219.385,329.823 219.352,329.923 219.051,335.19C218.885,338.19 218.918,339.39 219.252,340.023C219.885,341.19 221.185,341.257 222.485,340.19C223.418,339.39 223.518,339.123 223.518,337.423C223.518,334.99 224.218,331.689 224.985,330.556C225.752,329.323 227.152,329.456 227.819,330.823C228.219,331.656 228.185,332.056 227.719,333.723C226.652,337.556 227.152,341.023 228.719,341.023C229.919,341.023 230.519,340.357 230.519,339.023C230.519,338.29 230.819,336.89 231.186,335.89C233.052,330.956 237.119,328.289 239.853,330.289C240.753,330.956 240.753,330.956 241.32,330.323C241.92,329.623 242.653,329.789 243.52,330.856C243.92,331.323 243.82,331.689 242.92,333.356C241.92,335.156 241.853,335.49 241.853,338.657C241.853,340.49 241.986,342.023 242.153,342.023C242.32,342.023 243.086,341.323 243.82,340.49C245.02,339.09 245.186,338.723 245.186,337.223C245.22,331.923 250.987,327.389 253.787,330.456C254.82,331.589 254.954,332.856 254.254,334.456C253.654,335.79 251.12,338.49 249.72,339.257C248.187,340.123 250.853,341.923 253.054,341.49C254.587,341.223 255.687,340.257 258.054,337.19L259.954,334.656L258.687,333.356C257.221,331.856 256.954,330.089 257.954,328.556C259.787,325.789 264.554,326.589 264.521,329.623C264.488,330.289 264.288,331.223 264.021,331.689C263.321,332.923 263.388,333.123 264.988,334.256C266.821,335.556 267.588,336.69 267.855,338.49C268.021,339.823 268.055,339.857 269.188,339.757C269.955,339.69 270.721,339.29 271.421,338.623C273.188,336.89 274.355,338.19 272.788,340.19C271.888,341.323 270.288,342.023 268.555,342.023C267.688,342.023 266.788,342.323 265.988,342.857C264.388,343.924 262.021,343.99 260.721,342.99C260.054,342.457 259.854,342.023 259.854,341.023C259.854,339.423 260.754,338.69 262.754,338.69C263.954,338.69 264.121,338.59 263.954,338.123C263.754,337.49 262.188,335.69 261.854,335.69C261.754,335.69 260.987,336.623 260.187,337.756C257.954,340.857 256.554,342.323 255.12,343.057C252.42,344.457 249.087,344.157 247.12,342.39L246.053,341.457L244.02,343.157C242.12,344.724 241.953,344.99 241.753,346.524C241.253,350.424 239.453,354.191 237.619,355.124C237.03,355.428 236.425,355.625 235.831,355.725L233.985,355.725ZM406.463,354.824C409.53,353.291 412.33,349.291 412.73,345.79C412.93,344.324 413.13,343.99 414.33,343.023C417.23,340.657 418.597,338.29 417.297,337.79C416.93,337.623 416.23,338.157 414.964,339.623C413.13,341.69 412.53,342.09 412.53,341.257C412.53,340.657 410.663,338.823 409.563,338.323L408.63,337.923L409.93,335.723C411.263,333.423 411.463,332.456 410.83,331.256C410.197,329.989 409.13,329.356 407.597,329.356C406.23,329.356 405.963,329.523 404.063,331.423C402.93,332.589 400.929,334.99 399.563,336.79C398.229,338.59 396.796,340.257 396.429,340.523C395.062,341.49 392.929,340.89 391.596,339.19L390.929,338.323L392.396,335.523C394.629,331.389 395.896,327.623 396.096,324.656C396.263,322.222 396.263,322.089 395.329,321.089C393.996,319.655 392.962,319.455 391.529,320.422C389.395,321.855 388.395,324.089 387.495,329.156C387.262,330.523 387.162,332.956 387.262,335.09L387.462,338.69L386.462,339.523C385.262,340.523 383.295,340.723 383.728,339.79C383.862,339.457 384.028,338.023 384.128,336.623C384.228,334.456 384.162,333.79 383.528,332.489C382.495,330.389 381.195,329.623 378.928,329.789C376.995,329.923 375.428,331.056 375.028,332.589C374.928,333.056 374.461,333.923 373.994,334.523C373.561,335.123 372.994,336.523 372.761,337.69C372.461,339.29 372.128,339.957 371.461,340.457C369.428,341.99 367.927,340.09 367.627,335.656L367.427,333.056L368.961,332.69C370.794,332.223 371.861,331.289 371.861,330.156C371.861,328.889 370.594,328.456 368.861,329.156C368.127,329.456 367.461,329.689 367.427,329.689C367.161,329.689 367.894,322.989 368.294,321.889C368.761,320.555 368.894,320.389 370.694,319.622C371.961,319.055 372.161,317.989 371.161,316.989C370.594,316.422 370.194,316.322 369.127,316.455C365.961,316.889 364.061,320.789 363.36,328.456L363.127,330.689L357.527,330.689L357.527,329.456C357.527,328.756 357.427,327.189 357.327,325.989L357.093,323.756L358.493,323.522C361.26,323.056 362.794,320.655 361.86,318.322C360.627,315.422 355.16,315.888 353.86,319.055C353.36,320.189 353.293,320.189 350.193,319.055C347.96,318.222 346.859,318.189 344.559,318.889C341.459,319.789 339.192,322.722 339.192,325.856C339.192,327.356 340.526,329.723 341.826,330.589C343.426,331.656 345.626,331.623 346.693,330.523C347.659,329.589 347.726,329.123 346.993,328.089C346.393,327.222 345.326,327.156 344.426,327.923C343.826,328.489 343.759,328.489 342.993,327.589C341.659,326.022 342.126,323.156 343.926,321.889C345.526,320.755 351.093,321.589 352.726,323.156C352.96,323.356 353.193,324.822 353.293,326.422L353.46,329.356L352.66,329.156C351.693,328.923 350.326,329.723 350.026,330.689C349.693,331.689 350.693,332.656 352.293,332.923L353.627,333.123L353.427,335.923C353.193,339.323 352.26,341.59 350.96,341.923C349.526,342.257 349.026,341.657 349.026,339.69C349.026,338.19 348.893,337.856 348.16,337.29C347.359,336.69 347.159,336.656 346.326,337.056C343.359,338.523 345.426,343.89 349.16,344.524C353.86,345.324 356.96,342.023 357.427,335.756L357.627,333.323L363.36,333.523L363.594,335.623C363.86,338.19 364.361,339.79 365.427,341.457C366.927,343.824 370.028,344.324 372.328,342.557C373.328,341.79 373.494,341.757 373.894,342.223C375.161,343.757 379.028,344.324 380.762,343.19C381.362,342.79 382.195,342.59 383.228,342.657C384.862,342.723 386.895,342.057 387.929,341.123C388.462,340.623 388.629,340.69 389.995,341.957C392.296,344.09 395.196,344.257 397.496,342.423C398.163,341.89 399.929,339.857 401.396,337.89C404.663,333.59 406.463,331.689 407.263,331.689C408.73,331.689 407.097,335.39 404.563,337.856C403.663,338.723 403.196,339.457 403.196,340.023C403.196,341.723 404.696,342.223 406.196,341.023C406.663,340.657 407.263,340.357 407.563,340.357C408.363,340.357 409.263,341.523 409.297,342.69C409.363,343.69 409.23,343.824 406.096,345.457C402.696,347.257 400.396,349.124 399.863,350.557C399.229,352.191 399.463,353.691 400.496,354.724C401.796,356.024 403.996,356.058 406.463,354.824ZM234.086,353.124C233.952,353.024 233.852,352.491 233.852,351.991C233.852,351.324 234.352,350.624 235.953,349.157C237.819,347.424 238.019,347.29 238.119,347.957C238.286,348.991 237.319,351.757 236.486,352.624C235.853,353.324 234.552,353.591 234.086,353.124ZM402.396,352.824C402.296,352.524 402.196,352.091 402.196,351.824C402.196,350.924 404.563,348.757 406.863,347.557L409.197,346.324L408.563,348.057C407.297,351.324 405.363,353.357 403.43,353.357C402.963,353.357 402.496,353.124 402.396,352.824ZM158.128,316.391C160.627,316.553 162.877,317.692 164.148,319.989C165.215,321.922 165.181,324.122 164.015,331.856C163.115,338.057 163.115,340.257 164.048,341.19C164.515,341.623 164.681,341.623 165.515,341.19C168.148,339.823 171.715,331.923 172.715,325.222C172.982,323.356 173.315,321.489 173.449,321.022C173.915,319.389 176.716,319.255 177.449,320.855C177.682,321.322 177.849,322.956 177.849,324.489C177.849,328.056 178.416,333.956 179.049,336.69C179.916,340.557 181.082,341.29 182.983,339.223C185.783,336.256 186.716,326.822 184.583,322.756C184.249,322.089 183.683,321.022 183.383,320.422C182.416,318.655 183.316,316.689 185.083,316.689C186.216,316.689 188.016,318.522 188.516,320.189C189.116,322.256 189.35,330.056 188.85,332.823C187.95,337.923 185.716,342.057 183.016,343.624C181.082,344.724 178.882,344.49 177.349,343.023C176.049,341.79 174.715,338.79 174.182,335.923L173.782,333.99L172.715,336.256C171.115,339.523 168.815,342.49 167.015,343.524C165.748,344.29 165.181,344.424 163.881,344.29C159.414,343.857 158.414,340.423 160.015,331.123C161.581,321.956 160.781,319.122 156.714,319.222C153.781,319.289 150.314,322.256 149.347,325.456C148.714,327.556 148.714,328.423 149.314,329.789C150.181,331.823 151.747,332.623 152.947,331.656C154.814,330.189 156.514,331.556 155.648,333.856C155.348,334.623 153.747,335.356 152.381,335.356C149.881,335.356 147.947,333.956 146.647,331.189L145.847,329.523L145.847,316.391L145.849,316.391L145.88,320.955C145.88,325.489 145.914,325.756 146.314,324.456C147.833,319.642 152.527,316.661 156.86,316.391L158.128,316.391ZM288.122,343.023C288.722,342.657 289.389,341.99 289.589,341.523C289.989,340.623 290.523,340.423 290.523,341.157C290.523,341.423 290.956,342.09 291.489,342.657C292.723,343.99 294.523,344.057 296.256,342.89L297.39,342.123L298.323,342.89C300.223,344.524 302.723,343.69 304.957,340.657L306.024,339.223L306.324,340.323C306.49,340.923 307.124,341.957 307.757,342.59C308.757,343.69 308.957,343.757 310.357,343.624C312.391,343.39 313.824,342.19 316.458,338.657C317.658,337.023 318.724,335.69 318.858,335.69C319.158,335.69 320.358,337.056 320.824,337.956C321.191,338.657 321.158,338.69 319.691,338.69C318.524,338.69 317.958,338.89 317.358,339.523C316.424,340.423 316.324,341.057 316.924,342.123C317.558,343.323 318.258,343.657 320.024,343.69C321.291,343.69 322.025,343.49 322.925,342.857C323.758,342.29 324.625,342.023 325.525,342.023C327.958,342.023 330.525,340.257 330.525,338.623C330.525,337.523 329.558,337.523 328.425,338.623C327.725,339.29 326.958,339.69 326.191,339.757C325.091,339.857 325.058,339.823 324.791,338.357C324.458,336.49 323.758,335.49 321.825,334.19L320.324,333.156L320.924,331.856C322.025,329.389 321.491,327.723 319.358,327.022C317.958,326.556 316.291,326.989 315.291,328.123C313.757,329.756 313.957,331.756 315.758,333.523L316.924,334.656L314.691,337.523C311.257,341.923 310.157,342.057 309.69,338.057C309.524,336.556 309.624,335.723 310.157,334.19C310.991,331.789 311.024,330.756 310.29,329.956C309.624,329.223 308.09,329.156 307.424,329.856C307.124,330.123 306.657,331.123 306.324,332.089C305.624,334.29 303.39,338.923 302.557,339.99C302.157,340.523 301.757,340.723 301.357,340.557C300.723,340.323 300.79,338.957 301.757,335.123C302.39,332.589 302.123,330.889 301.023,330.156C300.123,329.556 299.023,329.789 298.556,330.656C298.39,330.956 297.956,333.056 297.656,335.323C297.156,338.757 296.923,339.557 296.223,340.223C294.523,341.957 293.523,340.89 293.523,337.29C293.523,335.823 293.756,334.723 294.39,333.323C295.256,331.423 295.256,331.323 294.69,330.689C293.923,329.823 293.056,329.856 292.223,330.756L291.523,331.456L290.856,330.589C288.289,327.323 283.189,331.323 282.222,337.39C281.789,340.057 282.189,341.69 283.556,342.823C284.822,343.89 286.556,343.957 288.122,343.023ZM319.258,341.123C319.324,340.723 319.624,340.557 320.024,340.623C320.858,340.79 320.991,340.89 320.691,341.323C320.324,341.957 319.124,341.757 319.258,341.123ZM376.228,340.823C375.828,340.323 375.528,339.457 375.528,338.823L375.528,337.723L377.195,339.49C378.128,340.457 378.861,341.357 378.861,341.457C378.861,341.59 378.428,341.69 377.895,341.69C377.228,341.69 376.695,341.39 376.228,340.823ZM262.254,341.123C262.388,340.457 262.854,340.257 263.488,340.657C264.088,341.057 263.654,341.69 262.821,341.69C262.354,341.69 262.188,341.49 262.254,341.123ZM286.256,341.29C285.689,340.723 285.756,337.123 286.356,335.123C287.222,332.189 289.823,330.389 289.623,332.856C289.556,333.423 289.456,334.79 289.389,335.956C289.189,338.89 287.222,342.257 286.256,341.29ZM234.519,340.523C233.586,339.39 234.886,334.823 236.686,332.89C237.819,331.689 238.119,331.789 238.386,333.523C238.619,335.19 238.086,337.056 236.619,339.623C235.786,341.09 235.219,341.357 234.519,340.523ZM379.361,337.623C377.795,335.256 377.828,331.689 379.428,331.689C380.162,331.689 380.862,333.823 380.862,336.09C380.862,339.023 380.528,339.39 379.361,337.623ZM193.95,335.923C194.217,334.19 195.25,332.189 195.85,332.189C197.15,332.189 196.15,335.59 194.517,336.656C193.75,337.19 193.75,337.19 193.95,335.923ZM249.053,335.79C249.387,333.99 250.287,332.189 250.853,332.189C251.954,332.189 251.654,334.423 250.32,335.99C249.153,337.356 248.787,337.29 249.053,335.79ZM390.429,332.99C390.962,326.056 392.496,320.655 393.296,322.756C393.596,323.622 392.829,328.156 391.862,331.123C390.529,335.223 390.195,335.656 390.429,332.99ZM317.891,331.389C317.291,330.323 317.558,329.189 318.358,329.189C319.191,329.189 319.424,330.589 318.758,331.489C318.291,332.123 318.258,332.123 317.891,331.389ZM260.854,331.223C260.321,330.556 260.554,329.223 261.287,329.089C261.987,328.956 262.321,329.723 262.054,330.856C261.821,331.789 261.454,331.923 260.854,331.223ZM205.084,331.089C204.017,329.889 204.784,328.589 206.017,329.489C206.417,329.756 206.517,330.123 206.351,330.789C206.084,331.856 205.817,331.923 205.084,331.089ZM228.719,326.922C230.352,325.522 229.452,323.022 227.319,323.022C225.385,323.022 224.352,326.089 225.919,327.156C226.952,327.889 227.652,327.823 228.719,326.922ZM357.193,320.555C357.193,319.755 357.96,318.689 358.493,318.689C358.66,318.689 358.96,318.889 359.16,319.155C359.827,319.955 358.76,321.355 357.493,321.355C357.327,321.355 357.193,320.989 357.193,320.555Z" id="Wertiges" />
	<g id="Text">
		<path fill="black" d="M179.134,206.753C179.341,206.567 179.351,206.454 179.351,204.914C179.351,202.745 179.485,202.869 177.254,202.869C175.064,202.869 175.177,202.766 175.136,204.77C175.095,206.34 175.177,206.743 175.549,206.898C175.684,206.949 176.489,206.98 177.347,206.97C178.731,206.949 178.948,206.929 179.134,206.753ZM150.311,206.898L150.89,206.402L150.921,203.313C150.952,200.018 150.911,199.666 150.508,199.666C150.167,199.666 148.121,200.916 147.977,201.226C147.894,201.381 147.842,201.949 147.842,202.786C147.842,203.84 147.811,204.129 147.677,204.253C147.533,204.398 147.223,204.418 145.487,204.398L143.452,204.367L143.452,199.439L145.549,198.179C146.706,197.487 147.749,196.815 147.873,196.691C148.08,196.484 148.101,196.33 148.132,195.317C148.173,194.026 148.111,193.509 147.904,193.437C147.822,193.406 146.799,193.953 145.621,194.666C144.454,195.369 143.473,195.947 143.442,195.947C143.421,195.947 143.411,193.819 143.421,191.226L143.452,186.495L145.518,186.464C147.367,186.443 147.594,186.453 147.708,186.619C147.801,186.743 147.842,187.29 147.842,188.458C147.842,190.472 147.894,190.617 148.524,190.327C148.752,190.234 149.34,189.863 149.857,189.511C150.735,188.902 150.787,188.85 150.869,188.406C150.911,188.148 150.931,187.135 150.921,186.154C150.89,184.408 150.88,184.356 150.642,184.16C150.404,183.974 150.187,183.964 144.754,183.984L139.113,184.015L139.082,184.263C139.051,184.429 139.154,184.625 139.402,184.883C139.599,185.09 139.888,185.441 140.032,185.658L140.301,186.061L140.301,204.801L140.001,205.255C139.836,205.503 139.557,205.844 139.382,206.009C139.082,206.299 138.968,206.671 139.134,206.825C139.165,206.867 141.696,206.898 144.754,206.898L150.311,206.898ZM173.029,206.64C173.049,206.505 172.853,206.185 172.481,205.761C172.171,205.4 171.861,204.935 171.81,204.718C171.737,204.47 171.717,201.226 171.727,195.637C171.758,185.544 171.613,186.588 172.977,186.691C174.051,186.763 174.547,187.001 175.115,187.724C175.601,188.323 175.993,188.54 176.159,188.292C176.21,188.21 176.252,187.259 176.252,186.174C176.252,183.809 176.272,183.86 175.291,184.067C174.847,184.16 173.452,184.222 170.684,184.243C167.305,184.284 166.562,184.263 165.652,184.119C165.064,184.015 164.516,183.964 164.423,184.005C164.289,184.057 164.268,184.346 164.289,186.205C164.32,188.303 164.32,188.354 164.537,188.385C164.702,188.406 164.919,188.241 165.343,187.745C166.066,186.929 166.376,186.774 167.491,186.691C168.225,186.629 168.38,186.65 168.535,186.794C168.7,186.96 168.71,187.631 168.71,195.885L168.71,204.801L168.442,205.204C168.287,205.421 168.008,205.782 167.822,205.999C167.491,206.361 167.388,206.671 167.543,206.825C167.584,206.867 168.824,206.887 170.301,206.877C172.925,206.846 172.998,206.836 173.029,206.64ZM161.913,206.609C162.192,206.474 162.512,206.216 162.636,206.04C162.874,205.71 162.874,205.699 162.874,201.505L162.874,197.311L162.564,196.856C162.347,196.557 161.582,195.937 160.136,194.883C156.654,192.383 156.283,192.094 156.035,191.722C155.807,191.381 155.797,191.288 155.797,189.108C155.797,187.745 155.838,186.763 155.9,186.639C156.004,186.453 156.138,186.443 157.863,186.443C159.588,186.443 159.723,186.453 159.826,186.639C159.878,186.753 159.929,187.435 159.929,188.148C159.929,188.86 159.981,189.542 160.033,189.646C160.157,189.873 161.179,190.617 162.026,191.092C162.946,191.608 162.925,191.681 162.925,188.354L162.925,185.534L162.595,185.038C162.388,184.739 162.068,184.429 161.789,184.274L161.324,184.015L157.987,183.984C154.402,183.953 154.01,183.995 153.369,184.491C152.76,184.976 152.749,185.059 152.718,188.747C152.677,192.641 152.729,193.065 153.287,193.685C153.669,194.108 153.741,194.16 157.274,196.712C159.051,198.003 159.557,198.427 159.723,198.737C159.909,199.108 159.929,199.356 159.929,201.588C159.929,203.726 159.909,204.067 159.754,204.232C159.609,204.398 159.402,204.418 157.853,204.418C156.417,204.418 156.097,204.387 155.962,204.253C155.828,204.119 155.797,203.799 155.797,202.352C155.797,201.392 155.756,200.493 155.694,200.348C155.642,200.193 155.229,199.842 154.692,199.48C153.183,198.468 152.873,198.375 152.739,198.881C152.708,199.005 152.698,200.472 152.718,202.146C152.749,204.883 152.77,205.235 152.946,205.555C153.307,206.237 153.793,206.619 154.506,206.805C154.681,206.846 156.303,206.877 158.121,206.867C161.355,206.846 161.438,206.846 161.913,206.609Z" />
		<path fill="black" d="M421.238,206.903C421.332,206.809 421.363,206.186 421.363,204.732C421.363,202.093 421.342,202.062 420.283,203.205C419.878,203.641 419.441,204.046 419.317,204.108C419.171,204.181 418.247,204.223 416.751,204.223C413.977,204.223 414.092,204.264 414.092,203.132C414.092,202.394 414.102,202.363 414.58,201.719C415.536,200.4 418.673,196.681 420.241,194.988C420.74,194.458 421.093,193.98 421.166,193.741C421.228,193.502 421.259,191.955 421.238,189.264C421.207,185.192 421.207,185.161 420.968,184.829C420.844,184.652 420.522,184.392 420.241,184.257C419.763,184.029 419.67,184.018 416.45,183.987C412.565,183.946 412.305,183.987 411.619,184.735C411.391,184.985 411.152,185.369 411.09,185.587C411.017,185.836 410.975,187.249 410.975,189.212C410.975,192.536 410.996,192.692 411.391,192.692C411.578,192.692 413.666,191.342 413.884,191.082C413.998,190.937 414.05,190.428 414.092,188.911L414.144,186.937L414.403,186.802C414.59,186.699 415.099,186.667 416.252,186.688C418.413,186.73 418.247,186.46 418.247,189.836L418.247,192.464L417.53,193.388C416.689,194.479 414.092,197.512 412.398,199.392C411.609,200.265 411.142,200.867 411.079,201.106C410.934,201.636 410.955,205.957 411.11,206.404C411.183,206.601 411.349,206.82 411.495,206.892C411.858,207.079 421.051,207.09 421.238,206.903ZM406.986,206.871C407.568,206.705 408.088,206.248 408.389,205.656C408.586,205.272 408.586,204.981 408.565,195.351L408.534,185.442L408.212,184.985C408.015,184.725 407.672,184.434 407.381,184.278L406.883,184.018L399.289,184.018L398.77,184.278C398.095,184.611 397.814,185.047 397.731,185.867C397.7,186.221 397.679,190.812 397.7,196.068C397.731,204.711 397.752,205.656 397.897,205.937C398.157,206.394 398.448,206.622 399.05,206.83C399.538,206.996 399.996,207.017 403.039,207.027C405.771,207.027 406.581,206.996 406.986,206.871ZM433.174,206.747C433.693,206.466 434.213,205.853 434.348,205.365C434.41,205.137 434.452,201.314 434.452,195.393C434.452,186.283 434.441,185.764 434.254,185.358C434.005,184.808 433.309,184.226 432.738,184.081C432,183.894 425.58,183.925 424.936,184.122C424.375,184.289 423.835,184.766 423.659,185.244C423.513,185.629 423.503,205.157 423.648,205.666C423.815,206.259 424.386,206.736 425.155,206.934C425.331,206.975 427.107,207.006 429.102,206.996C432.644,206.975 432.748,206.965 433.174,206.747ZM395.477,204.763C395.498,202.831 395.477,202.55 395.342,202.488C395.217,202.446 394.916,202.696 394.324,203.329L393.472,204.223L391.01,204.223C388.122,204.223 388.226,204.264 388.226,203.08L388.226,202.405L388.953,201.439C389.753,200.379 392.464,197.149 393.898,195.57C394.407,195.009 394.968,194.333 395.134,194.074L395.446,193.596L395.477,189.721C395.508,185.452 395.477,185.172 394.937,184.631C394.313,184.008 393.867,183.956 390.127,183.987C386.98,184.018 386.803,184.029 386.408,184.247C385.931,184.496 385.629,184.808 385.359,185.317C385.183,185.649 385.162,185.992 385.131,188.973C385.1,192.391 385.131,192.692 385.515,192.692C385.775,192.692 387.842,191.331 388.06,191.02C388.195,190.812 388.226,190.469 388.226,188.953C388.226,187.54 388.257,187.072 388.372,186.917C388.507,186.74 388.663,186.719 390.304,186.719C391.945,186.719 392.101,186.74 392.236,186.917C392.35,187.083 392.381,187.654 392.381,189.825L392.381,192.536L391.415,193.741C390.241,195.196 387.759,198.083 386.46,199.496C385.941,200.067 385.432,200.68 385.338,200.847C385.183,201.117 385.162,201.511 385.162,203.651C385.162,206.383 385.224,206.726 385.723,206.913C385.889,206.975 387.852,207.006 390.719,206.996L395.446,206.975L395.477,204.763ZM400.92,204.098C400.827,204.004 400.795,201.948 400.795,195.487C400.795,187.727 400.806,186.989 400.972,186.865C401.097,186.75 401.595,186.719 403.153,186.719C405.158,186.719 405.179,186.719 405.376,186.969C405.563,187.197 405.574,187.488 405.574,195.487C405.574,202.81 405.553,203.786 405.408,203.994C405.252,204.212 405.2,204.223 403.143,204.223C401.647,204.223 401.014,204.191 400.92,204.098ZM426.754,204.046C426.63,203.911 426.609,202.446 426.609,195.487C426.609,187.561 426.619,187.083 426.796,186.906C426.962,186.74 427.201,186.719 428.998,186.719C430.795,186.719 431.034,186.74 431.2,186.906C431.377,187.083 431.387,187.561 431.387,195.487C431.387,202.446 431.366,203.911 431.242,204.046C431.117,204.202 430.826,204.223 428.998,204.223C427.17,204.223 426.879,204.202 426.754,204.046Z" />
	</g>
	<path fill="black" d="M261.654,214.618C261.888,216.224 262.107,218.014 262.311,219.936L24.366,219.936L24.366,214.618L261.654,214.618ZM284.39,214.618C284.07,215.981 283.724,217.817 283.627,219.936L265.096,219.936C264.895,218.025 264.681,216.237 264.452,214.618L284.39,214.618ZM396.328,214.618C396.037,215.157 395.807,215.798 395.663,216.577C395.512,217.397 395.457,218.487 395.445,219.936L286.364,219.936C286.461,217.795 286.847,215.948 287.187,214.618L396.328,214.618ZM399.016,219.936C399.023,218.775 399.053,217.894 399.176,217.226C399.256,216.795 399.375,216.452 399.552,216.179L399.565,216.158C399.64,216.046 399.725,215.946 399.822,215.856C399.845,215.836 399.867,215.816 399.891,215.797C399.959,215.741 400.032,215.689 400.11,215.642L400.194,215.595C400.318,215.529 400.455,215.472 400.606,215.423C401.468,215.144 402.796,215.124 404.841,215.124L405.103,215.124C410.25,215.13 410.64,215.338 410.666,219.936L399.016,219.936ZM414.315,219.936C414.342,215.338 414.731,215.13 419.878,215.124L420.14,215.124C422.186,215.124 423.513,215.144 424.376,215.423C424.527,215.472 424.664,215.529 424.788,215.595L424.871,215.642C424.95,215.689 425.023,215.741 425.091,215.797C425.114,215.816 425.137,215.836 425.159,215.856C425.256,215.946 425.341,216.046 425.416,216.158L425.43,216.179C425.607,216.452 425.726,216.795 425.806,217.226C425.929,217.894 425.959,218.775 425.965,219.936L414.315,219.936ZM428.654,214.618L525.163,214.618L525.163,219.936L429.537,219.936C429.524,218.487 429.47,217.397 429.319,216.577C429.175,215.798 428.945,215.157 428.654,214.618Z" id="Linie" />
</svg>
